<svg xmlns="http://www.w3.org/2000/svg" width="19.022" height="25.262" viewBox="0 0 19.022 25.262">
  <g id="Airdrop" transform="translate(0.021 -0.003)">
    <path id="Path_715" data-name="Path 715" d="M933.524,492.074c4.209-.207,8.847,2.662,9.493,7.025a1.645,1.645,0,0,1-.708,1.616q-3.916,3.107-7.81,6.223a1.373,1.373,0,0,1-1.92,0l-7.878-6.275a1.574,1.574,0,0,1-.657-1.548C924.69,494.7,929.371,491.867,933.524,492.074Zm-1.844,12.274a38.123,38.123,0,0,0-2.256-4.773,2.856,2.856,0,0,0-3.262-.957c-.73.243-.863.646-.4,1.136a8.771,8.771,0,0,0,1.069.932c1.63,1.236,3.262,2.466,4.847,3.668Zm3.888.209c1.934-1.621,3.891-3.225,5.786-4.878.479-.418.223-.846-.437-1.066a2.861,2.861,0,0,0-3.265.95,18.608,18.608,0,0,0-2.078,5Z" transform="translate(-924.04 -492.06)" fill="#ec681c"/>
    <path id="Path_716" data-name="Path 716" d="M952.826,571.482a4.091,4.091,0,1,1,4.166-4.01A4.091,4.091,0,0,1,952.826,571.482Z" transform="translate(-943.359 -546.218)" fill="#f7ba96"/>
  </g>
</svg>
