<svg id="Your_design" data-name="Your design" xmlns="http://www.w3.org/2000/svg" viewBox="0 0 126.56 161.06"><defs><style>.cls-1{fill:#f3ba2f;}</style></defs><polygon class="cls-1" points="38.77 53.2 63.37 28.6 87.97 53.2 102.27 38.9 63.37 0 24.47 38.9 38.77 53.2"/><rect class="cls-1" x="26.9" y="62.96" width="20.2" height="20.2" transform="translate(-63.55 37.85) rotate(-45)"/><polygon class="cls-1" points="38.77 73.4 63.37 98 87.97 73.4 102.27 87.7 102.27 87.7 63.37 126.6 24.47 87.7 24.37 87.7 38.77 73.4"/><rect class="cls-1" x="124.9" y="62.96" width="20.2" height="20.2" transform="translate(-34.84 107.14) rotate(-45)"/><polygon class="cls-1" points="77.87 63.3 77.87 63.3 63.37 48.8 52.57 59.5 52.57 59.5 51.37 60.7 48.87 63.3 48.87 63.3 48.77 63.3 48.87 63.3 63.37 77.8 77.87 63.3 77.87 63.3"/><path class="cls-1" d="M49.44,170.36H38.88v-21h9.87a7.19,7.19,0,0,1,4.63,1.38,4.68,4.68,0,0,1,1.73,3.87,4.46,4.46,0,0,1-.75,2.61,4.31,4.31,0,0,1-1.89,1.56,5.38,5.38,0,0,1,3,1.86,5.56,5.56,0,0,1,1.26,3.75,5.35,5.35,0,0,1-2,4.32A8,8,0,0,1,49.44,170.36ZM43.2,153v4.62h4.86a3.33,3.33,0,0,0,2.11-.6,2,2,0,0,0,.77-1.68,2.08,2.08,0,0,0-.77-1.72,3.27,3.27,0,0,0-2.11-.62Zm0,8.19v5.49h5.43a4,4,0,0,0,2.52-.7,2.43,2.43,0,0,0,.9-2,2.46,2.46,0,0,0-.9-2,3.94,3.94,0,0,0-2.52-.72Z" transform="translate(-22.72 -9.72)"/><path class="cls-1" d="M76.11,170.36H60.36v-21H75.78v3.87H64.68v4.05h8.94v3.81H64.68v5.4H76.11Z" transform="translate(-22.72 -9.72)"/><path class="cls-1" d="M83.88,170.36H79.56v-21h9.18a7.65,7.65,0,0,1,5.34,1.77,6.28,6.28,0,0,1,0,9.15,7.65,7.65,0,0,1-5.34,1.77H83.88Zm0-17.22v5.22h4.56a3.88,3.88,0,0,0,2.43-.67,2.59,2.59,0,0,0,0-3.87,3.88,3.88,0,0,0-2.43-.68Z" transform="translate(-22.72 -9.72)"/><path class="cls-1" d="M113,170.36H98.07v-3.15l6.18-5.61a19.44,19.44,0,0,0,2.91-3.12,4.37,4.37,0,0,0,.84-2.55,2.6,2.6,0,0,0-1-2.14,4,4,0,0,0-2.61-.8,8.53,8.53,0,0,0-5.67,2.4V151a9.58,9.58,0,0,1,6.12-2,8.12,8.12,0,0,1,5.22,1.77,5.66,5.66,0,0,1,2.22,4.65,7.7,7.7,0,0,1-1,3.93,18,18,0,0,1-3.45,4l-3.6,3.3H113Z" transform="translate(-22.72 -9.72)"/><path class="cls-1" d="M125,170.78a8,8,0,0,1-4.89-1.56,9.75,9.75,0,0,1-3.11-4,13.31,13.31,0,0,1-1.06-5.4,13.52,13.52,0,0,1,1-5.34,9.5,9.5,0,0,1,3.19-4.05,8.07,8.07,0,0,1,4.85-1.53,7.81,7.81,0,0,1,6.57,3.21,13.31,13.31,0,0,1,0,15.42A7.81,7.81,0,0,1,125,170.78Zm-3.45-6a4,4,0,0,0,3.45,2,3.88,3.88,0,0,0,3.42-2,8.87,8.87,0,0,0,1.29-4.89,8.62,8.62,0,0,0-1.29-4.86,3.87,3.87,0,0,0-3.42-2,3.93,3.93,0,0,0-3.45,2,8.62,8.62,0,0,0-1.29,4.86A8.87,8.87,0,0,0,121.5,164.75Z" transform="translate(-22.72 -9.72)"/></svg>