<svg xmlns="http://www.w3.org/2000/svg" xmlns:xlink="http://www.w3.org/1999/xlink" width="20" height="20" viewBox="0 0 20 20"><defs><style>.a{fill:url(#a);}.b{fill:url(#b);}.c{fill:#fff;}.d{fill:url(#c);}.e{fill:#d48fcd;}.e,.f,.g,.h,.i,.j{fill-rule:evenodd;}.f{fill:#a1dd71;}.g{fill:#5a9ded;}.h{fill:#ff9c92;}.i{fill:#53d3e1;}.j{fill:#f8d136;}</style><linearGradient id="a" x1="-3.875" y1="15.625" x2="-3.875" y2="14.625" gradientUnits="objectBoundingBox"><stop offset="0" stop-color="#f0b90b"/><stop offset="1" stop-color="#f8d33a"/></linearGradient><linearGradient id="b" x1="-0.045" y1="12.227" x2="-0.034" y2="11.227" xlink:href="#a"/><linearGradient id="c" x1="0.5" y1="0.028" x2="0.5" y2="1.028" gradientUnits="objectBoundingBox"><stop offset="0" stop-color="#e6eafa"/><stop offset="1" stop-color="#e4f5eb"/></linearGradient></defs><circle class="a" cx="10" cy="10" r="10"/><circle class="b" cx="9.167" cy="9.167" r="9.167" transform="translate(0.833 0.833)"/><circle class="c" cx="8.333" cy="8.333" r="8.333" transform="translate(1.692 1.692)"/><path class="d" d="M24.811,14.2a7.5,7.5,0,1,0,0,10.608,7.5,7.5,0,0,0,0-10.608Z" transform="translate(-9.507 -9.5)"/><path class="e" d="M48.208,40.5,51.3,41.9l-.208.45L48,40.948Z" transform="translate(-38 -32.063)"/><path class="f" d="M35.46,40.948l-3.092,1.4-.208-.45,3.092-1.4Z" transform="translate(-25.46 -32.063)"/><path class="g" d="M48,57l3.567-5L48,54.1Zm1.817-3.4-1.323.783v1.075Z" transform="translate(-38 -41.167)"/><path class="h" d="M48,20v8.027l3.567-2.11Zm.494,1.773v5.39l2.394-1.419Z" transform="translate(-38 -15.833)"/><path class="i" d="M33.953,54.383,32.63,53.6l1.323,1.858Zm.494-.281L30.88,52l3.567,5Z" transform="translate(-24.447 -41.167)"/><path class="j" d="M30.88,25.917l3.567,2.11V20Zm.679-.173,2.394,1.419v-5.39Z" transform="translate(-24.447 -15.833)"/></svg>