<svg xmlns="http://www.w3.org/2000/svg" width="20" height="20" viewBox="0 0 20 20"><defs><style>.a{fill:#efb80b;}.b{fill:#fff;}</style></defs><g transform="translate(0)"><circle class="a" cx="10" cy="10" r="10" transform="translate(0 0)"/><path class="b" d="M68.38,43.753l2.563-2.563,2.563,2.563L75,42.263,70.943,38.21,66.89,42.263Z" transform="translate(-60.938 -34.81)"/><rect class="b" width="2.104" height="2.104" transform="translate(3.404 10) rotate(-45)"/><path class="b" d="M68.28,124.15l2.563,2.564,2.563-2.564,1.49,1.49h0l-4.052,4.052L66.79,125.64h-.01Z" transform="translate(-60.838 -113.103)"/><rect class="b" width="2.104" height="2.104" transform="translate(13.613 10) rotate(-45)"/><path class="b" d="M98.372,96.861h0l-1.51-1.511-1.126,1.115h0l-.125.125-.261.271h0l1.511,1.51,1.51-1.51Z" transform="translate(-86.856 -86.865)"/></g></svg>