<svg id="Layer_1" data-name="Layer 1" xmlns="http://www.w3.org/2000/svg" viewBox="0 0 465.33 465.33"><defs><style>.cls-1{fill:#39ced9;}.cls-2{fill:#c3c2c2;}.cls-3{fill:#787b7b;}.cls-4{fill:#a96e1b;}.cls-5{fill:#cbab6e;}.cls-6{fill:#925319;}.cls-7{fill:#cbbd94;}.cls-8{fill:#c3731b;}.cls-9{fill:#f3f1f1;}.cls-10{fill:#979797;}.cls-11{fill:#ce7f1c;}.cls-12{fill:#6d3202;}.cls-13{fill:#b2631b;}.cls-14{fill:#fcd78b;}.cls-15{fill:#fddb94;}.cls-16{fill:#fdde9b;}.cls-17{fill:#bb6b1b;}.cls-18{fill:#fce2a4;}.cls-19{fill:#fcebb6;}.cls-20{fill:#fde8ae;}.cls-21{fill:#ccba8b;}.cls-22{fill:#7f7f7f;}.cls-23{fill:#823b01;}.cls-24{fill:#c09309;}.cls-25{fill:#893f02;}.cls-26{fill:#904204;}.cls-27{fill:#9b4807;}.cls-28{fill:#ecb60b;}.cls-29{fill:#a57809;}</style></defs><circle class="cls-1" cx="232.67" cy="232.67" r="232.67"/><path class="cls-2" d="M388.64,259.07c6.82,5,14.55,8.49,21.23,13.71,11.48,9,21.12,19.14,24.55,33.87,1.23,5.25.67,10.56.58,15.85a117.42,117.42,0,0,1-9.22,20.3,5,5,0,0,0-2.86,1.88c-8,9.64-18.2,16.45-29.07,22.34-35.61,19.29-74.45,26.42-114.2,28.68-33.93,1.92-67.82.14-101.13-7.69-21.15-5-41.63-11.73-60.73-22.25-11.93-6.56-21.88-15.54-30.86-25.68a102.5,102.5,0,0,1-7.83-18.25c-2.38-25.43,12.65-40.52,31.63-53.26l1.17,5.56c-4.35,1.58-7.5,4.92-10.75,7.9-20.32,18.67-24,40.57-4.17,61.39,16.6,17.46,38.09,26.45,60.45,33.59,23.55,7.52,47.77,11.48,72.44,13.2a391.38,391.38,0,0,0,63.32-.53c23.88-2.21,47.4-6.7,70.11-14.72,20.75-7.33,40.24-16.72,55.56-33.24,13.86-14.93,15-34.22,2.79-50.5-9.38-12.49-22.4-20.14-35.82-27.3A5.09,5.09,0,0,1,388.64,259.07Z" transform="translate(-24.32 -26.96)"/><path class="cls-3" d="M79.1,321.83a102.5,102.5,0,0,0,7.83,18.25c0,2.09,1.08,3.77,2.1,5.52,9.38,16.18,24.37,25.77,40.54,33.5,34.32,16.4,71.17,22.7,108.75,24.69a356.71,356.71,0,0,0,57.32-1.61c24.92-2.71,49.3-7.49,72.81-16.21,19.07-7.07,36.82-16.38,50.75-31.71,3-3.31,5.8-6.83,6.58-11.46A117.42,117.42,0,0,0,435,322.5c2.11,20.51-8.79,34.47-23.66,46.16-18.52,14.56-40,23-62.5,29.1-39.59,10.81-79.93,13.31-120.74,10.44-32.25-2.27-63.62-8.42-93.47-21.18-15.56-6.65-30.07-15-41.79-27.55C82.94,348.84,77.52,336.63,79.1,321.83Z" transform="translate(-24.32 -26.96)"/><path class="cls-4" d="M135.18,141c7.14-9.18,16.88-14.91,27-19.94,22.53-11.14,46.71-16.38,71.5-18.76C269,98.94,304,101,338.06,111.24c17.85,5.36,35,12.38,48.84,25.55,2.28,2.17,4.69,4.26,6.05,7.21l-4,2c-3-1.63-3.73-5.54-7-6.92-2.93-2.19-5.76-4.52-8.8-6.54-20.57-13.73-44.06-19.35-67.9-23.36-21-3.53-42.26-4-63.63-2.36-23.25,1.78-45.84,6.16-67.54,14.51-9.74,3.75-19.21,8.45-27.06,15.69-2.83.93-4.51,3.44-6.9,5A9.57,9.57,0,0,0,135.18,141Z" transform="translate(-24.32 -26.96)"/><path class="cls-5" d="M388.64,259.07a5.09,5.09,0,0,0-2.81,4.85c-.26.74-.53,1.48-.79,2.23-.21,2.57-.43,5.14-.64,7.71-.95,2.28-1.78,4.62-2.88,6.82-3.69,7.41-9.89,12.64-15.83,18.1a157.71,157.71,0,0,1-35.12,17.47c-10.69,3.66-21.68,6.09-32.67,8.61-2.82-.36-4.62-1.82-5.12-4.71,10.26-1.6,20.45-3.49,30.25-7.07a116.07,116.07,0,0,0,38.13-17.74c7.82-5.55,14.45-12.26,17.74-21.6.83-2.37,2-4.85.19-7.37-2.88,1-4.65,3.09-6.79,4.61-5.63.68-10.27,3.86-15.28,6.09a9.35,9.35,0,0,0-2.45.27c-18.31,7.17-37.42,10.82-56.84,13.16-2.21-3.11-6.61-1.58-9-4.27,7.79-.87,15.62-1.46,23.29-3.2,1.79-.2,3.6-.32,5.38-.61,13.24-2.19,26-6.1,38.59-10.63,8.17-3.7,16.45-7.26,23.72-12.6,11.1-8.16,21-17.14,20.26-32.69L404.9,215c.55,12.19,1.38,24.46-7.38,34.62C394.7,252.9,391.61,255.93,388.64,259.07Z" transform="translate(-24.32 -26.96)"/><path class="cls-6" d="M111,253c-2.24-17.15,5.22-29.61,18.87-39.09l.53,1.47c0,1.5-.08,3-.13,4.52a33.76,33.76,0,0,0-14.24,23c-.41,5,.18,9.72,2.93,14,1.79,5,5.3,8.89,9.09,12.28,14.22,12.74,31.39,19.74,49.5,24.85,27,7.62,54.58,9.68,82.47,8.87,2.88,3.42,7.44,2.36,10.95,4.09-5.57,1.78-11.41.33-17,1.42l-18-.24-1.92-.08-32-3.12-31-7.14c-.9-.38-1.78-.82-2.7-1.13-20.08-6.85-38.92-15.65-52.26-33.12Q113.54,258.36,111,253Z" transform="translate(-24.32 -26.96)"/><path class="cls-6" d="M135.18,141a9.57,9.57,0,0,1,4.94.94c-2.43,4-6,7.29-7.12,12a22.51,22.51,0,0,0-.95,17c3,10.82,11,17.72,19.81,23.42,26.81,17.35,56.87,24,88.31,25.58a11.35,11.35,0,0,0,8.61,3.12c3.81-.21,7.63-.14,11.45-.09,3.06,0,5.91.72,7.8,3.47-12.39.76-24.7-.75-37-1.35a304.45,304.45,0,0,1-48-10l-6-2.33c-17.2-6.62-33.45-14.68-45-29.84L126,171.44C124.79,160,126.5,149.47,135.18,141Z" transform="translate(-24.32 -26.96)"/><path class="cls-6" d="M130.94,212.78a29.59,29.59,0,0,1,.28-10.11l4.88,6c-.56,4,.51,7.59,2.28,11.08,6,11.86,16.39,19.2,27.65,25.08,27.53,14.39,57.48,19.35,88.1,21.05,3.55.19,7.32,1,10.78-.83,4.35-.08,8.42.28,9.11,5.88-16.45,1.1-32.75-.61-49-2.57-12.88-1.78-25.36-5.3-37.85-8.77-5.09-2.59-10.69-3.8-15.88-6.28-13.59-6.52-26-14.39-35.23-26.63l-5.23-11.44Z" transform="translate(-24.32 -26.96)"/><path class="cls-6" d="M404.9,215,400,226.5a79.28,79.28,0,0,1-20.8,18.94c-8,5-16.78,8.5-25.3,12.48a308.48,308.48,0,0,1-43,10.52l-24,2.54c-1.48-4.07,1.18-5.6,4.23-6.89,6.46,1.63,12.76-.18,19.06-1.09,22-3.17,43.25-9,62.8-20,10-5.62,18.68-12.57,24-23,4.57-7.59,3.44-15.38.8-23.22l1.92-5.69C404.85,198.32,405.77,206.47,404.9,215Z" transform="translate(-24.32 -26.96)"/><path class="cls-6" d="M388.93,146l4-2c6.57,7.79,8,16.92,7,26.71-1.86,3.59-4,7-4.95,11a84.05,84.05,0,0,1-27.27,22.68c-9.52,5.12-19.69,8.55-29.77,12.27A304,304,0,0,1,284,226a5.18,5.18,0,0,1,3.27-4.08c2.21-1.07,4.83-1.2,6.81-2.84.84.74,1.77.6,2.81.47,7.1-.83,14.1-2.16,21.1-3.59,21.89-4.48,42.9-11.18,60.88-25,7-5.4,13.26-11.69,15.1-21,1.64-6.44,1.79-12.65-2.79-18.13C391.35,149.56,389.25,148.11,388.93,146Z" transform="translate(-24.32 -26.96)"/><path class="cls-5" d="M395,181.76c.92-4,3.09-7.46,4.95-11a133.18,133.18,0,0,1-.21,20.37l-1.92,5.69c-4.34,8.77-11.54,15-18.75,21.25-15.52,10.61-33,16.53-51,21.3-11.56,3.07-23.35,4.6-35.1,6.5-3.89.09-7.33-.62-8.8-4.89,2.8-.1,5.62,0,8.4-.32A242.83,242.83,0,0,0,340,230.9c12.94-4.08,25.43-9.23,36.27-17.5C386.66,205.47,395.75,196.45,395,181.76Z" transform="translate(-24.32 -26.96)"/><path class="cls-7" d="M136.1,208.7l-4.88-6c-6.1-9.69-6-20.4-5.19-31.23L132,183c-1.74,2.06-1.12,4.41-.62,6.63,1.94,8.45,7.09,14.85,13.53,20.28,10.4,8.77,22.67,14.19,35.12,19.26,0,1.6,0,3.2,0,4.8C163.5,228.78,148.59,220.85,136.1,208.7Z" transform="translate(-24.32 -26.96)"/><path class="cls-7" d="M111,253q2.5,5.32,5,10.63a24.53,24.53,0,0,0,2.66,14c3.38,6.73,8.65,11.71,14.34,16.37,9.26,7.6,20.37,11.79,31.06,16.72L163,314.94a111.82,111.82,0,0,1-36-19c-2.08-1.62-3.11-4.62-6.27-4.84-2.67-5.81-7.48-10.49-8.85-17l-1.17-5.56Q110.9,260.8,111,253Z" transform="translate(-24.32 -26.96)"/><path class="cls-8" d="M130.94,212.78c-.05.83-.1,1.66-.14,2.48l-.36.16-.53-1.47Z" transform="translate(-24.32 -26.96)"/><path class="cls-9" d="M111.9,274.13c1.37,6.48,6.18,11.16,8.85,17,.13,1.93.25,3.86.38,5.78-.31,1.07-.62,2.13-.92,3.2A31.65,31.65,0,0,0,119.7,323c4.59,13.34,14.46,22.25,25.89,29.44,25.09,15.82,53.16,22.47,82.26,25.45,10.58,1.09,21.24,1.42,31.87,2.09.95,4.56,3.93,6.55,8.41,7a109.78,109.78,0,0,0,56.44-8.69c4.57-2,7.37-4.91,7.69-10,16.95-5,32.75-12.28,46.15-24,6.63-5.81,12.74-12.22,14.66-21.38l0,.06c1.26-.77,1.11-2,1-3.18,2.54-7.88.66-15.93.91-23.9,1.23-11.45-1.25-21.67-9.91-29.83.26-.75.53-1.49.79-2.23,13.42,7.16,26.44,14.81,35.82,27.3,12.24,16.28,11.07,35.57-2.79,50.5-15.32,16.52-34.81,25.91-55.56,33.24-22.71,8-46.23,12.51-70.11,14.72a391.38,391.38,0,0,1-63.32.53c-24.67-1.72-48.89-5.68-72.44-13.2-22.36-7.14-43.85-16.13-60.45-33.59C77.18,322.6,80.83,300.7,101.15,282,104.4,279.05,107.55,275.71,111.9,274.13Z" transform="translate(-24.32 -26.96)"/><path class="cls-10" d="M425.78,342.8c-.78,4.63-3.57,8.15-6.58,11.46-13.93,15.33-31.68,24.64-50.75,31.71-23.51,8.72-47.89,13.5-72.81,16.21a356.71,356.71,0,0,1-57.32,1.61c-37.58-2-74.43-8.29-108.75-24.69C113.4,371.37,98.41,361.78,89,345.6c-1-1.75-2-3.43-2.1-5.52,9,10.14,18.93,19.12,30.86,25.68,19.1,10.52,39.58,17.28,60.73,22.25,33.31,7.83,67.2,9.61,101.13,7.69,39.75-2.26,78.59-9.39,114.2-28.68,10.87-5.89,21.07-12.7,29.07-22.34A5,5,0,0,1,425.78,342.8Z" transform="translate(-24.32 -26.96)"/><path class="cls-11" d="M147,137c7.85-7.24,17.32-11.94,27.06-15.69,21.7-8.35,44.29-12.73,67.54-14.51,21.37-1.63,42.61-1.17,63.63,2.36,23.84,4,47.33,9.63,67.9,23.36,3,2,5.87,4.35,8.8,6.54-.91,2.65-3.2,1.92-5,1.9-12.55-.16-25.09-1.45-37.64,0-1.73-3.7-4.65-5.25-8.7-5.12-4.59.15-9.19.09-13.78.13-2.18-3.53-5.49-5.72-9.06-7.59-9-4.68-18.66-5.63-28.57-5.35-1.68-5.2-5.51-7.08-10.7-7.07-17.26,0-34.53,0-51.8,0-7.1,0-10.58,3.12-11.63,10.21-.87,5.83-4.39,9.2-10.25,9.61a64.23,64.23,0,0,1-8,0,12.62,12.62,0,0,0-9.61,3.26c-7.56-1.09-15.11-1.68-22.69-.25A8.62,8.62,0,0,1,147,137Z" transform="translate(-24.32 -26.96)"/><path class="cls-8" d="M147,137a8.62,8.62,0,0,0,7.49,1.85c7.58-1.43,15.13-.84,22.69.24-3.13,5.22-2.61,10.12,1.29,14.72a21.42,21.42,0,0,1-4.33.86c-13.72-.17-27.44-.43-41.16-.67,1.14-4.74,4.69-8.05,7.12-12C142.51,140.44,144.19,137.93,147,137Z" transform="translate(-24.32 -26.96)"/><path class="cls-8" d="M339.27,141c12.55-1.45,25.09-.16,37.64,0,1.84,0,4.13.75,5-1.9,3.25,1.38,4,5.29,7,6.92.32,2.13,2.42,3.58,2.26,5.89-3.34,2.48-7,2.24-10.92,1.75-7.72-1-15.47-1.28-23.17.35a14.71,14.71,0,0,0-8.6-3.23C342,150.4,339.9,147.94,339.27,141Z" transform="translate(-24.32 -26.96)"/><path class="cls-12" d="M332.26,368.38c-.32,5.06-3.12,8-7.69,10A109.78,109.78,0,0,1,268.13,387c-4.48-.49-7.46-2.48-8.41-7a14.4,14.4,0,0,1,1.39-6.83c2.81-2.66,6.35-3.88,9.93-5l1.94-.34a2.59,2.59,0,0,0,2.5-.42c8.19-1.32,12-9.56,7.57-16.55-.55-2.53-2.46-2.92-4.58-2.8a19,19,0,0,1-7.34-1.05,37.55,37.55,0,0,0-1.95-3.38c-5.27-7.26-4.42-10.4,3.86-14.24a10,10,0,0,0,1.92-1.49,4.54,4.54,0,0,0,2.6-5c.09-2.94.52-5.9.21-8.79-.4-3.89-2.28-6.82-6.76-7-3.51-1.73-8.07-.67-10.95-4.09-1.65-3.87-1-7.58.8-11.2a13.34,13.34,0,0,1,5.16-4.13c4,.18,7.58-.9,8.45-5.16.76-3.76,1.29-7.77-.45-11.55-.69-5.6-4.76-6-9.11-5.88-6.19-4-6.9-11.18-1.77-17.9,3.39-.59,7.19-.48,8.29-4.92.77-5.67,1.93-11.43-3.4-15.78-1.89-2.75-4.74-3.43-7.8-3.47-3.82,0-7.64-.12-11.45.09a11.35,11.35,0,0,1-8.61-3.12c-.75-8.52-2.39-10.06-10.74-10-5,0-10-.44-14.93.19-14.09,1.79-20.08-8.79-27.3-17.43-1.58-1.9-1.48-4.72-1-7.23,1.07-6.1,5.62-9.7,13.44-10.24,3.52-.24,6.55-1,8.43-4.23,3.14-4.42,2-8.64-.59-12.79L212,157c3.37,3.41,3,7.75,3,12-2.58,7.54-7.94,11.61-15.82,11.88-4.62.16-6.85,2.5-8.14,6.85l2,4.26c2.58,2.82,5.19,5.6,7.72,8.46,3.24,3.65,7.21,4.84,12.07,4.63,7.15-.32,14.32-.16,21.49-.06a11,11,0,0,1,10.55,8.34c.35,1.26.1,2.7,1.76,4.21a32.14,32.14,0,0,0,10.71.1A18.11,18.11,0,0,1,271.59,222c6.45,5.26,5.4,12.39,5.43,19.34,0,4.13-2,6.94-5.45,8.86-1.72,1-3.51,1.79-5.14,2.61-.52,2.43-.82,4.54.28,6.52,13.22,5.92,14.17,7.34,13.24,22.21-.52,8.26-6.66,10.77-13.53,12.06-.92,1.59-2,2.88-1.94,4.68.86,2.29,2.77,2.52,4.84,2.78,4.56.59,8.74,2.08,11.68,5.94,2.56,4.63,1.76,9.7,2.06,14.65.38,6.5-3.26,10.14-8.39,12.92-1.13.61-2.66.61-3.25,2.39,1.39,3.65,3.38,6.56,8.2,6.08,2.84-.28,5.06,1.18,7.06,3.12,4.68,4.53,3.86,10,2.51,15.4-1.62,6.44-6.3,9.95-12.68,11.27-2.43.51-5,.57-7.31,1.45-2.95,1.13-5.18,3.11-3.21,7.05,9.15,2.22,18.34,1.93,27.61.71a93.65,93.65,0,0,0,29.53-8.58c2.62-1.29,4.58-3.09,3.62-6.25a5.63,5.63,0,0,0-6.55-4.16,73.39,73.39,0,0,0-7.31,1.49c-6.45,1.46-11.93-.07-16-5.36-6.05-7.79-3.16-18.45,6.54-24.5a3.11,3.11,0,0,0-.93-4.21,17.11,17.11,0,0,0-2.17-.42c-8.65-.68-13.22-5.5-13.28-14.06,0-3.66,0-7.32,0-11,1.24-3.63,4.58-5.59,6.74-8.13.4-3.42-2-3.75-4-4.46-5.11-1.85-7.86-5.32-7.74-10.91.08-3.84.06-7.67,0-11.5-.07-5.44,3.05-8.55,7.6-10.65,1.18-.54,2.7-.3,3.74-1.7a10.91,10.91,0,0,0-1.07-6c-2.51-.94-5.27-.68-7.54-2.43-6-4.66-8.47-22.53-3.69-28.59a10.19,10.19,0,0,1,5.59-4c1.43-.36,2.8-.93,4.23-1.42,2.67-7.57,7.46-12.26,15.83-12.2,2.17,0,4.34.07,6.5,0,7-.28,11.87-3.69,14.85-9.95a20.06,20.06,0,0,0,5.17-5.3c4.4-6.13,9.05-11.95,17.49-12.5a7.74,7.74,0,0,0,2.2-.88,5.27,5.27,0,0,0,.81-1.38c.19-1,.22-2,.32-3,0-3.38,1.45-6.61.92-10l4-.95.36,11c-1.13,6.91-3.62,9.67-10.33,10.8a10.31,10.31,0,0,0-7,4.16c-2.18,2.92-4.78,5.54-6.85,8.54-7,10.12-15.91,16.2-28.91,14.64-3.72-.45-6.67,1.84-8.74,4.86a63.92,63.92,0,0,0-3.31,6.1c-2,1.64-4.6,1.77-6.81,2.84A5.18,5.18,0,0,0,284,226a85.46,85.46,0,0,0,.15,14.92c1.47,4.27,4.91,5,8.8,4.89,6.33,2.29,5.27,7.65,5,12.51-.23,4.14-3.37,5.28-6.87,5.76-3.05,1.29-5.71,2.82-4.23,6.89.49,5.1-2,10.56,1.84,15.25,2.4,2.69,6.8,1.16,9,4.27.15,2.47.29,4.94.44,7.41.42,3.4-2.95,4.37-4.28,6.65-.88.4-1.93.68-1.88,1.94.22,4.55-.6,9.17.77,13.65.5,2.89,2.3,4.35,5.12,4.71a22.65,22.65,0,0,0,2.46.2c4.36-.11,7.47,1.79,8.41,6.07,1,4.45-.8,7.71-5.31,9.25A6.11,6.11,0,0,0,300,343a8.5,8.5,0,0,0-1.64,6.43c1,8.44,6.36,12.32,14.47,9.91,5.62-1.67,10.95-2.47,16.16,1l1.92,2.9C331.33,364.93,331.8,366.65,332.26,368.38Z" transform="translate(-24.32 -26.96)"/><path class="cls-13" d="M300,343a6.11,6.11,0,0,1,3.5-2.61c4.51-1.54,6.28-4.8,5.31-9.25-.94-4.28-4-6.18-8.41-6.07a22.65,22.65,0,0,1-2.46-.2c11-2.52,22-4.95,32.67-8.61a157.71,157.71,0,0,0,35.12-17.47c7.41,1.79,14.85.89,22.28.21-2.92,8.22-9.34,13.72-15.81,18.76-14,10.9-30.56,16.6-47.45,21.2C316.65,341.15,308.49,343.37,300,343Z" transform="translate(-24.32 -26.96)"/><path class="cls-14" d="M372.3,271c2.14-1.52,3.91-3.57,6.79-4.61,1.77,2.52.64,5-.19,7.37-3.29,9.34-9.92,16.05-17.74,21.6A116.07,116.07,0,0,1,323,313.08c-2.17-4.87,2.14-9.83-.19-14.7,15.94-5.19,31.46-11.26,44.72-21.91C369.44,275,371.79,273.73,372.3,271Z" transform="translate(-24.32 -26.96)"/><path class="cls-6" d="M300,343c8.53.38,16.69-1.84,24.75-4,16.89-4.6,33.44-10.3,47.45-21.2,6.47-5,12.89-10.54,15.81-18.76,3.53-9.05,3.27-17.56-3.57-25.13.21-2.57.43-5.14.64-7.71,8.66,8.16,11.14,18.38,9.91,29.83q-2.49,5.76-5,11.52a83.26,83.26,0,0,1-17.62,16.73c-6.74,4.61-14.18,7.9-21.36,11.68a235.18,235.18,0,0,1-52.66,13.51A8.5,8.5,0,0,1,300,343Z" transform="translate(-24.32 -26.96)"/><path class="cls-15" d="M310.84,268.44a308.48,308.48,0,0,0,43-10.52c2,.82,2.71,2.23,3.29,4.36,1,3.5-.84,6.35-1.17,9.51-12.59,4.53-25.35,8.44-38.59,10.63-1.78.29-3.59.41-5.38.61C311.55,278.17,313.36,273.13,310.84,268.44Z" transform="translate(-24.32 -26.96)"/><path class="cls-14" d="M356,271.79c.33-3.16,2.12-6,1.17-9.51-.58-2.13-1.33-3.54-3.29-4.36,8.52-4,17.29-7.44,25.3-12.48A79.28,79.28,0,0,0,400,226.5c.76,15.55-9.16,24.53-20.26,32.69C372.43,264.53,364.15,268.09,356,271.79Z" transform="translate(-24.32 -26.96)"/><path class="cls-15" d="M322.84,298.38c2.33,4.87-2,9.83.19,14.7-9.8,3.58-20,5.47-30.25,7.07-1.37-4.48-.55-9.1-.77-13.65-.05-1.26,1-1.54,1.88-1.94C303.78,303.6,313.26,300.77,322.84,298.38Z" transform="translate(-24.32 -26.96)"/><path class="cls-6" d="M322.84,298.38c-9.58,2.39-19.06,5.22-28.95,6.18,1.33-2.28,4.7-3.25,4.28-6.65,12.46-.5,24.09-4.51,35.55-8.88,8.16-3.11,16.57-6,23.3-12,5-2.23,9.65-5.41,15.28-6.09-.51,2.75-2.86,4-4.74,5.49C354.3,287.12,338.78,293.19,322.84,298.38Z" transform="translate(-24.32 -26.96)"/><path class="cls-16" d="M310.84,268.44c2.52,4.69.71,9.73,1.17,14.59-7.67,1.74-15.5,2.33-23.29,3.2-3.86-4.69-1.35-10.15-1.84-15.25Z" transform="translate(-24.32 -26.96)"/><path class="cls-13" d="M357,277.07c-6.73,6-15.14,8.85-23.3,12-11.46,4.37-23.09,8.38-35.55,8.88-.15-2.47-.29-4.94-.44-7.41,19.42-2.34,38.53-6,56.84-13.16A9.35,9.35,0,0,1,357,277.07Z" transform="translate(-24.32 -26.96)"/><path class="cls-17" d="M384.4,273.86c6.84,7.57,7.1,16.08,3.57,25.13-7.43.68-14.87,1.58-22.28-.21,5.94-5.46,12.14-10.69,15.83-18.1C382.62,278.48,383.45,276.14,384.4,273.86Z" transform="translate(-24.32 -26.96)"/><path class="cls-13" d="M260.86,291.8c-1.77,3.62-2.45,7.33-.8,11.2-27.89.81-55.47-1.25-82.47-8.87-18.11-5.11-35.28-12.11-49.5-24.85-3.79-3.39-7.3-7.27-9.09-12.28,8.14-.48,16.37,1.12,24.42-1.18A108.65,108.65,0,0,0,183,278c1.57,1.34,3.59,1.65,5.46,2.25C212,287.84,236.25,290.93,260.86,291.8Z" transform="translate(-24.32 -26.96)"/><path class="cls-18" d="M236,308.27l18,.24c0,5.09.37,10.21-1,15.22-11.3.87-22.55-.77-33.82-1.08-5.75-.16-11.9-.93-17.45-3.41,2.53-4.67,3.11-9.39.29-14.17l32,3.12A1.21,1.21,0,0,0,236,308.27Z" transform="translate(-24.32 -26.96)"/><path class="cls-19" d="M164.12,310.76c-10.69-4.93-21.8-9.12-31.06-16.72-5.69-4.66-11-9.64-14.34-16.37a24.53,24.53,0,0,1-2.66-14c13.34,17.48,32.18,26.28,52.26,33.13.92.31,1.8.75,2.7,1.13C170,302.4,170,307.17,167,311Z" transform="translate(-24.32 -26.96)"/><path class="cls-20" d="M167,311c3-3.85,3-8.62,4.06-13.09l31,7.14c2.82,4.78,2.24,9.5-.29,14.17C189.68,318.43,178.17,315.33,167,311Z" transform="translate(-24.32 -26.96)"/><path class="cls-7" d="M183,278a108.77,108.77,0,0,1-39.6-22.15A79.76,79.76,0,0,1,133.77,243c-3.75-7.3-2.56-15.34-3.46-23.06.05-1.51.09-3,.13-4.52l.36-.16q2.61,5.73,5.23,11.45c-1.08,8.75,2.35,15.79,8.11,22.08,11,12,24.73,19.19,39.88,24.2a5.29,5.29,0,0,1,.06.8C183.72,275.18,183.37,276.58,183,278Z" transform="translate(-24.32 -26.96)"/><path class="cls-16" d="M253,323.73c1.36-5,1-10.13,1-15.22,5.63-1.09,11.47.36,17-1.42,4.48.19,6.36,3.12,6.76,7,.31,2.89-.12,5.85-.21,8.79C269.34,322.37,261.21,324.75,253,323.73Z" transform="translate(-24.32 -26.96)"/><path class="cls-17" d="M133.77,243a79.76,79.76,0,0,0,9.64,12.82c-8,2.3-16.27.7-24.41,1.18-2.75-4.3-3.34-9.06-2.93-14Z" transform="translate(-24.32 -26.96)"/><path class="cls-8" d="M133.77,243l-17.7,0a33.76,33.76,0,0,1,14.24-23C131.21,227.66,130,235.7,133.77,243Z" transform="translate(-24.32 -26.96)"/><path class="cls-16" d="M236,308.27a1.21,1.21,0,0,1-1.92-.08Z" transform="translate(-24.32 -26.96)"/><path class="cls-13" d="M208,171c-1.88,3.28-4.91,4-8.43,4.23-7.82.54-12.37,4.14-13.44,10.24-.44,2.51-.54,5.33,1,7.23,7.22,8.64,13.21,19.22,27.3,17.43,4.91-.63,9.95-.17,14.93-.19,8.35,0,10,1.51,10.74,10-31.44-1.62-61.5-8.23-88.31-25.58-8.81-5.7-16.78-12.6-19.81-23.42Z" transform="translate(-24.32 -26.96)"/><path class="cls-17" d="M208,171l-76,0a22.51,22.51,0,0,1,.95-17c13.72.24,27.44.5,41.16.67a21.42,21.42,0,0,0,4.33-.86c5.89,3.12,12.28,2,18.5,2.05,3.72,0,7.23.4,10.45,2.36C210.06,162.37,211.17,166.59,208,171Z" transform="translate(-24.32 -26.96)"/><path class="cls-20" d="M183,215.15a304.45,304.45,0,0,0,48,10l2,14.9c-3.68.36-7.26-.51-10.83-1.07-13.71-2.17-27.42-4.37-40.32-9.88C183.89,224.57,182.13,219.75,183,215.15Z" transform="translate(-24.32 -26.96)"/><path class="cls-19" d="M183,215.15c-.86,4.6.9,9.42-1.14,13.93l-1.84.07c-12.45-5.07-24.72-10.49-35.12-19.26-6.44-5.43-11.59-11.83-13.53-20.28-.5-2.22-1.12-4.57.62-6.63,11.54,15.16,27.79,23.22,45,29.84Z" transform="translate(-24.32 -26.96)"/><path class="cls-18" d="M233,240l-2-14.9c12.34.6,24.65,2.11,37,1.35,5.33,4.35,4.17,10.11,3.4,15.78-4.45-.09-8.91-.25-13.36-.28A153.52,153.52,0,0,1,233,240Z" transform="translate(-24.32 -26.96)"/><path class="cls-13" d="M263.14,247.18c-5.13,6.72-4.42,13.89,1.77,17.9-3.46,1.87-7.23,1-10.78.83-30.62-1.7-60.57-6.66-88.1-21.05-11.26-5.88-21.62-13.22-27.65-25.08-1.77-3.49-2.84-7.12-2.28-11.08,12.49,12.15,27.4,20.08,43.9,25.25,6.25,2.79,12.88,4.35,19.48,6C220.39,245,241.69,246.79,263.14,247.18Z" transform="translate(-24.32 -26.96)"/><path class="cls-18" d="M274,271c1.74,3.78,1.21,7.79.45,11.55-.87,4.26-4.46,5.34-8.45,5.16-5.59-1.73-11.36-1.46-17.09-1.71a167.5,167.5,0,0,1-25.94-3c-1.17-5.1,2.52-9.53,2-14.54C241.27,270.35,257.57,272.06,274,271Z" transform="translate(-24.32 -26.96)"/><path class="cls-19" d="M184,273c-15.15-5-28.93-12.23-39.88-24.2-5.76-6.29-9.19-13.33-8.11-22.08,9.21,12.24,21.64,20.11,35.23,26.63,5.19,2.48,10.79,3.69,15.88,6.29-.69,3.43-2.77,6.64-1.29,10.42C186.36,271.35,185.58,272.59,184,273Z" transform="translate(-24.32 -26.96)"/><path class="cls-20" d="M184,273c1.56-.4,2.34-1.64,1.83-2.94-1.48-3.78.6-7,1.29-10.42,12.49,3.46,25,7,37.85,8.76.52,5-3.17,9.44-2,14.54-3.09-.5-6.17-1-9.26-1.48-10.13-1.6-19.71-5.34-29.65-7.66A5.29,5.29,0,0,0,184,273Z" transform="translate(-24.32 -26.96)"/><path class="cls-13" d="M291.11,264.09c3.5-.48,6.64-1.62,6.87-5.76.26-4.86,1.32-10.22-5-12.51,11.75-1.9,23.54-3.43,35.1-6.5,18-4.77,35.45-10.69,51-21.3,5.86,1.77,12,1,17.95,2-5.34,10.46-14.05,17.41-24,23-19.55,11-40.77,16.81-62.8,20C303.87,263.91,297.57,265.72,291.11,264.09Z" transform="translate(-24.32 -26.96)"/><path class="cls-17" d="M397,220c-5.95-1-12.09-.2-17.95-2,7.21-6.23,14.41-12.48,18.75-21.25C400.43,204.61,401.56,212.4,397,220Z" transform="translate(-24.32 -26.96)"/><path class="cls-13" d="M294.1,219.09a63.92,63.92,0,0,1,3.31-6.1c2.07-3,5-5.31,8.74-4.86,13,1.56,21.89-4.52,28.91-14.64,2.07-3,4.67-5.62,6.85-8.54a10.31,10.31,0,0,1,7-4.16c6.71-1.13,9.2-3.89,10.32-10.8A165.14,165.14,0,0,0,394,170c-1.84,9.28-8.07,15.57-15.1,21-18,13.82-39,20.52-60.88,25-7,1.43-14,2.76-21.1,3.59C295.87,219.69,294.94,219.83,294.1,219.09Z" transform="translate(-24.32 -26.96)"/><path class="cls-15" d="M284.17,240.93A85.46,85.46,0,0,1,284,226a304,304,0,0,0,53.91-9.3A33.78,33.78,0,0,1,340,230.9a242.83,242.83,0,0,1-47.42,9.71C289.79,240.92,287,240.83,284.17,240.93Z" transform="translate(-24.32 -26.96)"/><path class="cls-14" d="M340,230.9a33.78,33.78,0,0,0-2.06-14.19c10.08-3.72,20.25-7.15,29.77-12.27A84.05,84.05,0,0,0,395,181.76c.78,14.69-8.31,23.71-18.71,31.64C365.42,221.67,352.93,226.82,340,230.9Z" transform="translate(-24.32 -26.96)"/><path class="cls-17" d="M394,170a165.14,165.14,0,0,1-34.72,0q-.16-5.49-.35-11c0-1.92-1.17-3.39-1.82-5.06,7.7-1.63,15.45-1.31,23.17-.35,3.88.49,7.58.73,10.92-1.75C395.78,157.35,395.63,163.56,394,170Z" transform="translate(-24.32 -26.96)"/><path class="cls-21" d="M263.14,247.18c-21.45-.39-42.75-2.18-63.66-7.28-6.6-1.6-13.23-3.16-19.48-6,0-1.6,0-3.2,0-4.8l1.84-.07c12.9,5.51,26.61,7.71,40.32,9.88,3.57.56,7.15,1.43,10.83,1.07A153.52,153.52,0,0,0,258.07,242c4.45,0,8.91.19,13.36.28C270.33,246.7,266.53,246.59,263.14,247.18Z" transform="translate(-24.32 -26.96)"/><path class="cls-13" d="M275,327.88a10,10,0,0,1-1.92,1.49c-8.28,3.84-9.13,7-3.86,14.24a35.21,35.21,0,0,1,1.94,3.38c-22.49.53-44.86-.57-67-5.07-24.38-4.95-47.77-12.35-66.7-29.46-4.84-4.38-9.51-9.41-10.43-16.52a111.82,111.82,0,0,0,36,19c2,.8,3.93,1.75,6,2.4,24.59,7.85,49.89,11.17,75.61,11.42C254.7,328.86,264.83,328.2,275,327.88Z" transform="translate(-24.32 -26.96)"/><path class="cls-6" d="M127,295.94c.92,7.11,5.59,12.14,10.43,16.52,18.93,17.11,42.32,24.51,66.7,29.46,22.11,4.5,44.48,5.6,67,5.07a19.09,19.09,0,0,0,7.35,1.05c2.12-.12,4,.27,4.58,2.8-6.62,1.45-13.38.84-20.06,1.45a392.26,392.26,0,0,1-50-3.22,35.29,35.29,0,0,1-3.87-.51q-16.57-4.21-33.13-8.5c-.91-.38-1.81-.81-2.73-1.16C155.14,332,138,323.57,126,307.44q-2.45-5.28-4.91-10.56c-.13-1.92-.25-3.85-.38-5.78C123.91,291.32,124.94,294.32,127,295.94Z" transform="translate(-24.32 -26.96)"/><path class="cls-21" d="M275,327.88c-10.13.32-20.26,1-30.38.88-25.72-.25-51-3.57-75.61-11.42-2-.65-4-1.6-6-2.4l1.11-4.18L167,311c11.21,4.31,22.72,7.41,34.75,8.22,5.55,2.48,11.7,3.25,17.45,3.41,11.27.31,22.52,2,33.82,1.08,8.23,1,16.36-1.36,24.58-.84A4.54,4.54,0,0,1,275,327.88Z" transform="translate(-24.32 -26.96)"/><path class="cls-22" d="M261.11,373.17a14.4,14.4,0,0,0-1.39,6.83c-10.63-.67-21.29-1-31.87-2.09-29.1-3-57.17-9.63-82.26-25.45-11.43-7.19-21.3-16.1-25.89-29.44a31.65,31.65,0,0,1,.51-22.94c1.74,5.3-.23,10.89,1.32,16.21,5.33,18.34,19.52,28,35.41,35.9,7.47,4.52,15.66,7.3,23.93,9.84C207,370,233.89,372.87,261.11,373.17Z" transform="translate(-24.32 -26.96)"/><path class="cls-5" d="M390,307.5q2.51-5.76,5-11.52c-.25,8,1.63,16-.91,23.9a3.25,3.25,0,0,0-1,3.18l0-.06c-1.26.38-1.71,1.5-2.3,2.5-6.12,10.35-15.17,17.55-25.44,23.32a171.91,171.91,0,0,1-34.46,14.38L329,360.3c.25-2.73,2.69-2.59,4.41-3.22,6.66-2.44,13.62-4.09,19.69-8a73.69,73.69,0,0,0,25.83-16.52C385.9,325.7,390.78,317.86,390,307.5Z" transform="translate(-24.32 -26.96)"/><path class="cls-7" d="M156.94,352.19c-15.89-7.94-30.08-17.56-35.41-35.9-1.55-5.32.42-10.91-1.32-16.21.3-1.07.61-2.13.92-3.2q2.46,5.28,4.91,10.56c-1,9.31,3.12,16.57,9,23.23,6.7,7.58,15.47,12.23,23.93,17.33Z" transform="translate(-24.32 -26.96)"/><path class="cls-22" d="M330.87,363.2a171.91,171.91,0,0,0,34.46-14.38c10.27-5.77,19.32-13,25.44-23.32.59-1,1-2.12,2.3-2.5-1.92,9.16-8,15.57-14.66,21.38-13.4,11.72-29.2,19-46.15,24C331.8,366.65,331.33,364.93,330.87,363.2Z" transform="translate(-24.32 -26.96)"/><path class="cls-22" d="M393,323.06a3.25,3.25,0,0,1,1-3.18C394.14,321.08,394.29,322.29,393,323.06Z" transform="translate(-24.32 -26.96)"/><path class="cls-23" d="M207.44,158.22c-3.22-2-6.73-2.36-10.45-2.36-6.22,0-12.61,1.07-18.5-2.05-3.9-4.6-4.42-9.5-1.29-14.72a12.65,12.65,0,0,1,9.61-3.25,64.23,64.23,0,0,0,8,0c5.86-.41,9.38-3.78,10.25-9.61,1.05-7.09,4.53-10.2,11.63-10.21,17.27,0,34.54,0,51.8,0,5.19,0,9,1.87,10.7,7.07l-6.1.72c-.52-2.22-2.16-2.75-4.15-2.74q-26.46,0-52.9,0c-3.27,0-5.6,1.79-5.83,5-.3,4.18-2.07,7.6-4.22,11-5.55,3.62-11.7,4.52-18.17,4-3.45-.27-6.26.63-7.57,4.3.53,4.06,3.17,5.59,6.92,5.66,4.33.07,8.66.1,13,0A13.12,13.12,0,0,1,212,157Z" transform="translate(-24.32 -26.96)"/><path class="cls-24" d="M273.07,123.75l6.09-.72c9.91-.28,19.6.67,28.57,5.35,3.57,1.87,6.88,4.06,9.06,7.59l1.17,5-.93,4a25,25,0,0,1-13.66,9.56c-19.81,5.43-39,6.37-55.17-9.65l-.12-6.89c2.43-4.82,6.34-8,11.19-10.12A77.43,77.43,0,0,1,273.07,123.75Zm-19.93,16.67a8.32,8.32,0,0,0,4.52,6.32c16.13,8.57,32.61,8.62,48.85.77,7.81-3.77,7.53-10.08-.37-13.89-15.58-7.53-31.4-7.53-47.11-.11C256.07,134.91,253.8,137,253.14,140.42Z" transform="translate(-24.32 -26.96)"/><path class="cls-23" d="M318,141l-1.17-5c4.59,0,9.19,0,13.78-.13,4.05-.13,7,1.42,8.7,5.12.63,7,2.73,9.44,9.23,9.78a14.71,14.71,0,0,1,8.6,3.23c.65,1.67,1.84,3.14,1.82,5.06l-4,.95-3.36-3.78c-9.93.09-16.66-3.86-17.38-15.19Z" transform="translate(-24.32 -26.96)"/><path class="cls-25" d="M193,192l-2-4.26c1.29-4.35,3.52-6.69,8.14-6.85,7.88-.27,13.24-4.34,15.82-11.88,8.91,1.54,17.91.1,26.75.61,12.42.71,24.78-.16,37.18.19,25,.68,50.05.2,75.08.21-.1,1-.13,2-.32,3a5.27,5.27,0,0,1-.81,1.38,7.74,7.74,0,0,1-2.2.88c-8.44.55-13.09,6.37-17.49,12.5A20.06,20.06,0,0,1,328,193c-8.31.66-16.56-2.13-24.84-.74-6.15,1-12.24.74-18.38.45-3.77-.19-7.63-1.08-11.31-.57-12.8,1.8-25.63.29-38.42.55C221.09,193,207,194,193,192Z" transform="translate(-24.32 -26.96)"/><path class="cls-23" d="M193,192c14,2,28.08,1,42.07.72,12.79-.26,25.62,1.25,38.42-.55,3.68-.51,7.54.38,11.31.57,6.14.29,12.23.59,18.38-.45,8.28-1.39,16.53,1.4,24.84.74-3,6.26-7.88,9.67-14.85,9.95-2.16.09-4.33,0-6.5,0-8.37-.06-13.16,4.63-15.83,12.2-1.43.49-2.8,1.06-4.23,1.42a10.19,10.19,0,0,0-5.59,4c-4.78,6.06-2.35,23.93,3.69,28.59,2.27,1.75,5,1.49,7.54,2.43a10.91,10.91,0,0,1,1.07,6c-1,1.4-2.56,1.16-3.74,1.7-4.55,2.1-7.67,5.21-7.6,10.65.05,3.83.07,7.66,0,11.5-.12,5.59,2.63,9.06,7.74,10.91,2,.71,4.41,1,4,4.46-2.16,2.54-5.5,4.5-6.74,8.13-2.26-.12-4.08,1.09-6,2-2.94-3.86-7.12-5.35-11.68-5.94-2.07-.26-4-.49-4.84-2.78-.09-1.8,1-3.09,1.94-4.68,6.87-1.29,13-3.8,13.53-12.06.93-14.87,0-16.29-13.24-22.21-1.1-2-.8-4.09-.28-6.52,1.63-.82,3.42-1.66,5.14-2.61,3.47-1.92,5.47-4.73,5.45-8.86,0-7,1-14.08-5.43-19.34a18.11,18.11,0,0,0-14.28-4.33,32.14,32.14,0,0,1-10.71-.1c-1.66-1.51-1.41-2.95-1.76-4.21A11,11,0,0,0,234.29,205c-7.17-.1-14.34-.26-21.49.06-4.86.21-8.83-1-12.07-4.63C198.2,197.59,195.59,194.81,193,192Z" transform="translate(-24.32 -26.96)"/><path class="cls-26" d="M354,170c-25,0-50.07.47-75.08-.21-12.4-.35-24.76.52-37.18-.19-8.84-.51-17.84.93-26.75-.61,0-4.27.37-8.61-3-12a13.12,13.12,0,0,0-11.89-6c-4.32.09-8.65.06-13,0-3.75-.07-6.39-1.6-6.92-5.66,1.31-3.67,4.12-4.57,7.57-4.3,6.47.51,12.62-.39,18.17-4,7.3,2.63,15.29-.92,21.95,2.76,6.91-3,13.63-1.27,20.17-1.74q.06,3.44.11,6.89c-1.51,6.31,1.75,11.2,12.29,14.95,9.66,3.44,19.89,3.86,30,2.85,7.58-.77,15.25-2.14,21.71-6.61,3.7-2.56,7.25-5.66,4.83-11.1l.93-4H334.2c.72,11.33,7.45,15.28,17.38,15.19l3.36,3.78C355.47,163.4,354,166.63,354,170Z" transform="translate(-24.32 -26.96)"/><path class="cls-25" d="M281,307c1.91-.91,3.73-2.12,6-2,0,3.67,0,7.33,0,11,.06,8.56,4.63,13.38,13.28,14.06a17.11,17.11,0,0,1,2.17.42,3.11,3.11,0,0,1,.93,4.21c-9.7,6.05-12.59,16.71-6.54,24.5,4.11,5.29,9.59,6.82,16,5.36a73.39,73.39,0,0,1,7.31-1.49,5.63,5.63,0,0,1,6.55,4.16c1,3.16-1,5-3.62,6.25A93.65,93.65,0,0,1,293.6,382c-9.27,1.22-18.46,1.51-27.61-.71-2-3.94.26-5.92,3.21-7.05,2.29-.88,4.88-.94,7.31-1.45,6.38-1.32,11.06-4.83,12.68-11.27,1.35-5.35,2.17-10.87-2.51-15.4-2-1.94-4.22-3.4-7.06-3.12-4.82.48-6.81-2.43-8.2-6.08.59-1.78,2.12-1.78,3.25-2.39,5.13-2.78,8.77-6.42,8.39-12.92C282.76,316.7,283.56,311.63,281,307Z" transform="translate(-24.32 -26.96)"/><path class="cls-15" d="M353.05,349.11c-6.07,3.88-13,5.53-19.69,8-1.72.63-4.16.49-4.41,3.22-5.21-3.44-10.54-2.64-16.16-1-8.11,2.41-13.5-1.47-14.47-9.91A235.18,235.18,0,0,0,351,335.91Z" transform="translate(-24.32 -26.96)"/><path class="cls-21" d="M156.94,352.19c.68-1.4,1.37-2.79,2.05-4.19,5.47,1.67,10.23,5.18,16,6.08,11.81,5.22,24.44,7.36,37,9.75,16.52,3.49,33.28,3.31,50,3.22,3,.5,6.23-1,9,1.1-3.58,1.14-7.12,2.36-9.93,5-27.22-.3-54.1-3.13-80.24-11.14C172.6,359.49,164.41,356.71,156.94,352.19Z" transform="translate(-24.32 -26.96)"/><path class="cls-21" d="M184.08,273.79c9.94,2.32,19.52,6.06,29.65,7.66,3.09.48,6.17,1,9.26,1.48a167.5,167.5,0,0,0,25.94,3c5.73.25,11.5,0,17.09,1.71a13.34,13.34,0,0,0-5.16,4.13c-24.61-.87-48.86-4-72.39-11.58-1.87-.6-3.89-.91-5.46-2.25C183.37,276.58,183.72,275.18,184.08,273.79Z" transform="translate(-24.32 -26.96)"/><path class="cls-16" d="M271,368.15c-2.8-2.11-6-.6-9-1.1q.5-7.38,1-14.76c6.68-.61,13.44,0,20.06-1.45,4.39,7,.62,15.23-7.57,16.55a2.36,2.36,0,0,0-2.5.42Z" transform="translate(-24.32 -26.96)"/><path class="cls-21" d="M273,367.81a2.36,2.36,0,0,1,2.5-.42A2.59,2.59,0,0,1,273,367.81Z" transform="translate(-24.32 -26.96)"/><path class="cls-14" d="M353.05,349.11,351,335.91c7.18-3.78,14.62-7.07,21.36-11.68A83.26,83.26,0,0,0,390,307.5c.82,10.36-4.06,18.2-11.08,25.09A73.69,73.69,0,0,1,353.05,349.11Z" transform="translate(-24.32 -26.96)"/><path class="cls-18" d="M263,352.29q-.5,7.38-1,14.76c-16.75.09-33.51.27-50-3.22.25-4.92-.62-9.93,1-14.76A392.26,392.26,0,0,0,263,352.29Z" transform="translate(-24.32 -26.96)"/><path class="cls-19" d="M175,354.08c-5.76-.9-10.52-4.41-16-6.08-8.46-5.1-17.23-9.75-23.93-17.33-5.9-6.66-10-13.92-9-23.23,12,16.13,29.1,24.57,47.23,31.46.92.35,1.82.78,2.73,1.16C175.17,344.7,178,349.6,175,354.08Z" transform="translate(-24.32 -26.96)"/><path class="cls-20" d="M175,354.08c3-4.48.19-9.38,1-14q16.56,4.26,33.13,8.5a35.29,35.29,0,0,0,3.87.51c-1.64,4.83-.77,9.84-1,14.76C199.42,361.44,186.79,359.3,175,354.08Z" transform="translate(-24.32 -26.96)"/><path class="cls-27" d="M248.08,138c-6.54.47-13.26-1.25-20.17,1.74-6.66-3.68-14.65-.13-21.95-2.76,2.15-3.37,3.92-6.79,4.22-11,.23-3.2,2.56-5,5.83-5q26.44-.06,52.9,0c2,0,3.63.52,4.15,2.74a77.58,77.58,0,0,0-13.79,4.14C254.42,130,250.51,133.19,248.08,138Z" transform="translate(-24.32 -26.96)"/><path class="cls-28" d="M253.14,140.42c.66-3.38,2.93-5.51,5.89-6.91,15.71-7.42,31.53-7.42,47.11.11,7.9,3.81,8.18,10.12.37,13.89-16.24,7.85-32.72,7.8-48.85-.77A8.32,8.32,0,0,1,253.14,140.42Zm21-1.78,8.3-3.6c5,.29,8.85,6.07,14.34,1L283,129.73l-13.6,6.32A8.15,8.15,0,0,0,274.14,138.64ZM296.71,145c-2.68-2.4-5.12-2.48-7.62-1-4.1,2.46-8.07,2.29-12.16,0-2.25-1.28-4.6-1.73-6.55.77C279,152.24,283.36,152.31,296.71,145Zm-13.37-6.71c-1.92.76-3.58,1-4.53,2.61,3.05,2.18,5.78,2.75,8.65-.41Zm22.54,2.14c-2.86-1.68-5.5-2.21-8.4-.07a5.87,5.87,0,0,0,4.16,2.51C303.16,142.36,304.78,142,305.88,140.4Zm-36.79-.12c-3.1-1.77-5.71-1.86-8.71.33,1.62,1.38,2.91,2.23,4.68,2.17C266.38,142.19,267.88,142,269.09,140.28Z" transform="translate(-24.32 -26.96)"/><path class="cls-29" d="M317,145c2.42,5.44-1.13,8.54-4.83,11.1-6.46,4.47-14.13,5.84-21.71,6.61-10.12,1-20.35.59-30-2.85-10.54-3.75-13.8-8.64-12.29-14.95,16.15,16,35.37,15.08,55.18,9.65A25,25,0,0,0,317,145Z" transform="translate(-24.32 -26.96)"/><path class="cls-29" d="M274.14,138.64a8.15,8.15,0,0,1-4.72-2.59l13.6-6.32,13.76,6.32c-5.49,5.06-9.32-.72-14.34-1Z" transform="translate(-24.32 -26.96)"/><path class="cls-29" d="M296.71,145c-13.35,7.34-17.69,7.27-26.33-.25,1.95-2.5,4.3-2.05,6.55-.77,4.09,2.33,8.06,2.5,12.16,0C291.59,142.49,294,142.57,296.71,145Z" transform="translate(-24.32 -26.96)"/><path class="cls-29" d="M283.34,138.26l4.12,2.2c-2.87,3.16-5.6,2.59-8.65.41C279.76,139.23,281.42,139,283.34,138.26Z" transform="translate(-24.32 -26.96)"/><path class="cls-29" d="M305.88,140.4c-1.1,1.64-2.72,2-4.24,2.44a5.87,5.87,0,0,1-4.16-2.51C300.38,138.19,303,138.72,305.88,140.4Z" transform="translate(-24.32 -26.96)"/><path class="cls-29" d="M269.09,140.28c-1.21,1.67-2.71,1.91-4,2.5-1.77.06-3.06-.79-4.68-2.17C263.38,138.42,266,138.51,269.09,140.28Z" transform="translate(-24.32 -26.96)"/></svg>