<svg xmlns="http://www.w3.org/2000/svg" width="23.334" height="23.448" viewBox="0 0 23.334 23.448"><defs><style>.a{fill:#fff;}.b{fill:#dde8ff;}</style></defs><path class="a" d="M292.86,111.777h-5.028l2.514,3.6Zm0,0" transform="translate(-274.65 -106.658)"/><path class="a" d="M195.809,120.813h5.414l-2.707-3.879Zm0,0" transform="translate(-186.841 -111.579)"/><path class="b" d="M186.188,231.586l3.146,12.842,3.146-12.842Zm0,0" transform="translate(-177.661 -220.98)"/><path class="a" d="M117.235,111.777h-5.028l2.514,3.6Zm0,0" transform="translate(-107.068 -106.658)"/><path class="b" d="M294.243,231.586l-2.887,11.786,9.991-11.786Zm0,0" transform="translate(-278.013 -220.98)"/><path class="a" d="M376.906,135.152l-3.242-3.191-2.227,3.191Zm0,0" transform="translate(-354.427 -125.918)"/><path class="a" d="M21.915,131.773l-3.251,3.2h5.484Zm0,0" transform="translate(-17.809 -125.739)"/><path class="b" d="M0,231.586l10.006,11.8-2.892-11.8Zm0,0" transform="translate(0 -220.98)"/><path class="a" d="M237.723,0h1.371V2.841h-1.371Zm0,0" transform="translate(-226.836)"/><path class="a" d="M313.43,7.886l1.112-2.664,1.266.528L314.7,8.415Zm0,0" transform="translate(-299.076 -4.983)"/><path class="a" d="M140.039,5.743l1.265-.528,1.112,2.664-1.265.528Zm0,0" transform="translate(-133.626 -4.976)"/></svg>