<svg id="diamond_1_" data-name="diamond (1)" xmlns="http://www.w3.org/2000/svg" width="22.5" height="22.5" viewBox="0 0 22.5 22.5">
  <path id="Path_10236" data-name="Path 10236" d="M22.5,103.2,11.25,116.47l-.067-.079L0,103.2l4.987-4.909H17.513Zm0,0" transform="translate(0 -93.97)" fill="#00e8f2"/>
  <path id="Path_10237" data-name="Path 10237" d="M267.25,103.2,256,116.47V98.289h6.263Zm0,0" transform="translate(-244.75 -93.97)" fill="#00cef5"/>
  <path id="Path_10238" data-name="Path 10238" d="M177.787,103.187H170.25l3.7-4.811.067-.088Zm0,0" transform="translate(-162.768 -93.97)" fill="#9cfdff"/>
  <path id="Path_10239" data-name="Path 10239" d="M343.049,98.289l-2.549,4.9h7.537Zm0,0" transform="translate(-325.537 -93.97)" fill="#00f8fe"/>
  <path id="Path_10240" data-name="Path 10240" d="M4.987,98.289l2.549,4.9H0Zm0,0" transform="translate(0 -93.97)" fill="#9cfdff"/>
  <path id="Path_10241" data-name="Path 10241" d="M241,0h1.318V2.732H241Zm0,0" transform="translate(-230.409)" fill="#9cfdff"/>
  <path id="Path_10242" data-name="Path 10242" d="M316.848,7.791l1.069-2.561,1.217.508L318.064,8.3Zm0,0" transform="translate(-302.924 -5.001)" fill="#00f8fe"/>
  <path id="Path_10243" data-name="Path 10243" d="M143.137,5.731l1.217-.508,1.069,2.561-1.217.508Zm0,0" transform="translate(-136.847 -4.993)" fill="#9cfdff"/>
  <path id="Path_10244" data-name="Path 10244" d="M178.927,209.75l-3.713,13.282-.067-.24L171.5,209.75Zm0,0" transform="translate(-163.963 -200.532)" fill="#00f8fe"/>
  <path id="Path_10245" data-name="Path 10245" d="M256,0h.659V2.732H256Zm0,0" transform="translate(-244.75)" fill="#00f8fe"/>
  <path id="Path_10246" data-name="Path 10246" d="M259.768,103.187h-.055L256,116.47V98.289Zm0,0" transform="translate(-244.75 -93.97)" fill="#9cfdff"/>
  <path id="Path_10247" data-name="Path 10247" d="M259.768,103.187H256v-4.9Zm0,0" transform="translate(-244.75 -93.97)" fill="#00f8fe"/>
</svg>
