<svg xmlns="http://www.w3.org/2000/svg" width="23.008" height="23.012" viewBox="0 0 23.008 23.012"><defs><style>.a{fill:#dde8ff;}.b{fill:none;}.c{fill:#fff;}</style></defs><g transform="translate(-0.03 -0.003)"><circle class="a" cx="3.639" cy="3.639" r="3.639" transform="translate(7.938 7.798)"/><path class="b" d="M95.382,84.917l5.41-4.455a7.293,7.293,0,0,0-11.2-.058l5.572,4.587Z" transform="translate(-83.634 -73.607)"/><path class="b" d="M79.84,78.93l5.634,4.639h0L79.84,78.93Z" transform="translate(-68.247 -67.492)"/><path class="b" d="M46.511,51.487,40.94,46.9h0l5.571,4.587Z" transform="translate(-34.983 -40.103)"/><path class="b" d="M78.082,111.61a7.308,7.308,0,0,0-.07,4.6l6.954-2.309Z" transform="translate(-73.446 -102.509)"/><path class="b" d="M89.1,132.457a7.293,7.293,0,0,0,11.343-.061l-5.634-4.636Z" transform="translate(-83.215 -116.32)"/><path class="b" d="M86.97,127.42h-.016L80,129.725a7.286,7.286,0,0,0,1.323,2.441l5.708-4.7Z" transform="translate(-75.434 -116.029)"/><path class="b" d="M87.372,100.3,81.8,95.71a7.308,7.308,0,0,0-1.32,2.3l6.885,2.286Z" transform="translate(-75.844 -88.913)"/><path class="b" d="M136.248,98.348a7.318,7.318,0,0,0-1.268-2.238l-5.41,4.455Z" transform="translate(-117.822 -89.255)"/><path class="b" d="M79.4,78.131l.081.028.13-.109-.22.074Z" transform="translate(-67.862 -66.74)"/><path class="b" d="M79.34,78.561l.016.006-.009-.007Z" transform="translate(-67.82 -67.176)"/><rect class="b" height="0.012" transform="translate(11.528 11.384) rotate(-45)"/><rect class="b" height="0.074" transform="translate(11.536 11.392) rotate(-50.53)"/><path class="b" d="M79.507,78.656l.025-.019-.081-.028Z" transform="translate(-67.914 -67.219)"/><path class="b" d="M128.5,127.612l5.634,4.636a7.29,7.29,0,0,0,1.272-2.373l-6.882-2.285Z" transform="translate(-116.907 -116.174)"/><path class="b" d="M135.478,111.56l-6.678,2.217-.13.109,6.882,2.285A7.3,7.3,0,0,0,135.478,111.56Z" transform="translate(-117.052 -102.467)"/><path class="c" d="M75.618,162.5a7.3,7.3,0,0,1-5.65-2.677l-3.238,2.67a11.488,11.488,0,0,0,17.82-.061l-3.241-2.67A7.3,7.3,0,0,1,75.618,162.5Z" transform="translate(-64.086 -143.683)"/><path class="c" d="M118.73,110.95l3.242,2.67h0l-3.242-2.67Z" transform="translate(-101.503 -94.873)"/><path class="c" d="M76.037,53.014a7.291,7.291,0,0,1,5.627,2.653L84.906,53a11.489,11.489,0,0,0-17.685-.059l3.241,2.67a7.29,7.29,0,0,1,5.576-2.593Z" transform="translate(-64.505 -48.81)"/><path class="a" d="M52.887,106.2a7.287,7.287,0,0,1,.409-2.408l-3.981-1.324a11.485,11.485,0,0,0-.075,7.244l3.987-1.324A7.28,7.28,0,0,1,52.887,106.2Z" transform="translate(-48.66 -94.694)"/><path class="a" d="M176.071,106.168a7.276,7.276,0,0,1-.338,2.195l3.987,1.323a11.467,11.467,0,0,0-.075-7.256l-3.986,1.323A7.3,7.3,0,0,1,176.071,106.168Z" transform="translate(-157.235 -94.659)"/><path class="c" d="M21.8,31.14,18.56,28.47h0L21.8,31.14Z" transform="translate(-15.845 -24.343)"/></g></svg>