<svg xmlns="http://www.w3.org/2000/svg" width="12.522" height="12.522" viewBox="0 0 12.522 12.522"><defs><style>.a{fill:#9a9a9a;}</style></defs><g transform="translate(0.001 -0.001)"><path class="a" d="M178.636,156.368q-.2-.174-.406-.332l-1.582,1.582a2.568,2.568,0,0,1-3.281,3.281l-1.188,1.188a5.4,5.4,0,0,0,2.05.429,5.6,5.6,0,0,0,2.455-.61,9.25,9.25,0,0,0,1.952-1.313,12.117,12.117,0,0,0,1.785-1.9.367.367,0,0,0,0-.428,12.118,12.118,0,0,0-1.785-1.9Z" transform="translate(-167.969 -152.219)"/><path class="a" d="M245.661,247.5a1.833,1.833,0,0,0,1.816-2.093l-2.075,2.075A1.843,1.843,0,0,0,245.661,247.5Z" transform="translate(-239.401 -239.399)"/><path class="a" d="M12.414.109a.367.367,0,0,0-.519,0L9.013,2.991q-.149-.081-.3-.154a5.6,5.6,0,0,0-2.455-.61,5.6,5.6,0,0,0-2.455.61A9.249,9.249,0,0,0,1.853,4.15a12.119,12.119,0,0,0-1.785,1.9.367.367,0,0,0,0,.428,12.117,12.117,0,0,0,1.785,1.9,10.336,10.336,0,0,0,1.008.768L.107,11.9a.367.367,0,1,0,.519.519L12.414.627a.367.367,0,0,0,0-.519ZM3.692,6.262A2.567,2.567,0,0,1,7.8,4.206l-.526.526a1.833,1.833,0,0,0-2.54,2.54L4.2,7.8A2.555,2.555,0,0,1,3.692,6.262Z" transform="translate(0 0)"/></g></svg>