<svg xmlns="http://www.w3.org/2000/svg" width="22" height="22.047" viewBox="0 0 22 22.047"><defs><style>.a{fill:#fff;}.b{fill:#dde8ff;}.c{fill:#526daa;}</style></defs><g transform="translate(-0.002 -0.002)"><path class="a" d="M947.719,538.811l-2.489-2.557,6.577-6.651c1.425-1.4,2.874-2.781,4.268-4.212a6.464,6.464,0,0,1,4.978-2.053h3c.529,0,.728.106.709.678-.043,1.244,0,2.489,0,3.733a5.96,5.96,0,0,1-1.8,4.057q-2.258,2.277-4.5,4.567l-6.6,6.533-2.619-2.489c.261-.274.429-.467.666-.7,1.244-1.244,2.4-2.489,3.671-3.646.747-.684.131-.952-.23-1.363s-.7-.74-1.288-.124C950.687,536.017,949.168,537.4,947.719,538.811Zm12.923-8.667a2.607,2.607,0,1,0-.829,1.823,2.588,2.588,0,0,0,.829-1.823Z" transform="translate(-942.759 -523.33)"/><path class="b" d="M955.89,550.793l6.6-6.533c0,1.512,0,3.018.062,4.53a1.244,1.244,0,0,1-.436.989c-1.076,1.064-2.147,2.128-3.2,3.21-.317.33-.548.442-.908.037C957.327,552.268,956.581,551.564,955.89,550.793Z" transform="translate(-946.787 -531.237)"/><path class="b" d="M950.32,533.385l-6.577,6.651c-.74-.709-1.474-1.437-2.234-2.134-.33-.3-.33-.516,0-.834,1.163-1.126,2.3-2.271,3.441-3.422a1.077,1.077,0,0,1,.84-.3Z" transform="translate(-941.26 -527.112)"/><path class="b" d="M947.929,545.408c1.45-1.412,2.943-2.794,4.355-4.256.591-.622.89-.336,1.288.125s.977.678.23,1.363c-1.244,1.163-5.5,5.537-6.073,6.116s-.946.342-1.381-.131-.921-.74-.174-1.363A21.657,21.657,0,0,0,947.929,545.408Z" transform="translate(-942.969 -529.928)"/><path class="c" d="M966.857,532.666a2.588,2.588,0,1,1-2.489-2.657,2.588,2.588,0,0,1,2.489,2.657Z" transform="translate(-948.975 -525.852)"/></g></svg>