<svg id="lottery" xmlns="http://www.w3.org/2000/svg" width="21" height="21" viewBox="0 0 21 21">
  <g id="Group_8564" data-name="Group 8564">
    <g id="Group_8563" data-name="Group 8563">
      <g id="Group_8562" data-name="Group 8562">
        <g id="Group_8561" data-name="Group 8561">
          <g id="Group_8560" data-name="Group 8560">
            <g id="Group_8559" data-name="Group 8559">
              <g id="Group_8558" data-name="Group 8558">
                <circle id="Ellipse_368" data-name="Ellipse 368" cx="10.5" cy="10.5" r="10.5" fill="#ff6c52"/>
              </g>
            </g>
          </g>
        </g>
      </g>
    </g>
  </g>
  <path id="Path_10248" data-name="Path 10248" d="M128.055,63.509q0-.33-.02-.654l-3.761-3.762-.438.342-4.159-4.159-.858.746-7.184,12.923,5.025,5.025q.443.037.9.038A10.5,10.5,0,0,0,128.055,63.509Z" transform="translate(-107.055 -53.009)" fill="#f43425"/>
  <g id="Group_8571" data-name="Group 8571" transform="translate(2.461 2.461)">
    <g id="Group_8570" data-name="Group 8570">
      <g id="Group_8569" data-name="Group 8569">
        <g id="Group_8568" data-name="Group 8568">
          <g id="Group_8567" data-name="Group 8567">
            <g id="Group_8566" data-name="Group 8566">
              <g id="Group_8565" data-name="Group 8565">
                <circle id="Ellipse_369" data-name="Ellipse 369" cx="8.039" cy="8.039" r="8.039" fill="#fff"/>
              </g>
            </g>
          </g>
        </g>
      </g>
    </g>
  </g>
  <g id="Group_8578" data-name="Group 8578" transform="translate(10.5 2.461)">
    <g id="Group_8577" data-name="Group 8577">
      <g id="Group_8576" data-name="Group 8576">
        <g id="Group_8575" data-name="Group 8575">
          <g id="Group_8574" data-name="Group 8574">
            <g id="Group_8573" data-name="Group 8573">
              <g id="Group_8572" data-name="Group 8572">
                <path id="Path_10249" data-name="Path 10249" d="M256,60h0V76.078A8.039,8.039,0,0,0,256,60Z" transform="translate(-255.999 -60)" fill="#e9edf5"/>
              </g>
            </g>
          </g>
        </g>
      </g>
    </g>
  </g>
  <g id="Group_8595" data-name="Group 8595" transform="translate(4.388 4.388)">
    <g id="Group_8594" data-name="Group 8594">
      <g id="Group_8593" data-name="Group 8593">
        <g id="Group_8592" data-name="Group 8592">
          <g id="Group_8591" data-name="Group 8591">
            <g id="Group_8590" data-name="Group 8590">
              <g id="Group_8579" data-name="Group 8579" transform="translate(1.887 0)">
                <path id="Path_10250" data-name="Path 10250" d="M157.216,106.99a6.122,6.122,0,0,0-4.225,1.7l4.225,4.34Z" transform="translate(-152.991 -106.99)" fill="#ffce00"/>
              </g>
              <g id="Group_8580" data-name="Group 8580" transform="translate(0.001 1.696)">
                <path id="Path_10251" data-name="Path 10251" d="M108.888,148.341A6.094,6.094,0,0,0,107,152.707h6.111v-.026Z" transform="translate(-107.002 -148.341)" fill="#fa0"/>
              </g>
              <g id="Group_8581" data-name="Group 8581" transform="translate(0 6.062)">
                <path id="Path_10252" data-name="Path 10252" d="M106.986,254.826a6.091,6.091,0,0,0,1.744,4.274l4.368-4.291v-.034h-6.111C106.986,254.793,106.986,254.809,106.986,254.826Z" transform="translate(-106.986 -254.776)" fill="#ff6c52"/>
              </g>
              <g id="Group_8582" data-name="Group 8582" transform="translate(1.744 6.096)">
                <path id="Path_10253" data-name="Path 10253" d="M153.868,261.73V255.6l-4.368,4.29A6.124,6.124,0,0,0,153.868,261.73Z" transform="translate(-149.5 -255.602)" fill="#ff432e"/>
              </g>
              <g id="Group_8583" data-name="Group 8583" transform="translate(6.112 6.036)">
                <path id="Path_10254" data-name="Path 10254" d="M256,254.171v0Z" transform="translate(-256 -254.145)" fill="#1dd882"/>
              </g>
              <g id="Group_8584" data-name="Group 8584" transform="translate(6.111)">
                <path id="Path_10255" data-name="Path 10255" d="M255.971,113.048l4.339-4.253a6.092,6.092,0,0,0-4.339-1.808s0,0,0,0v6.062Z" transform="translate(-255.969 -106.986)" fill="#1dd882"/>
              </g>
              <g id="Group_8585" data-name="Group 8585" transform="translate(6.112 1.808)">
                <path id="Path_10256" data-name="Path 10256" d="M260.339,151.073,256,155.326h6.111A6.092,6.092,0,0,0,260.339,151.073Z" transform="translate(-256 -151.073)" fill="#4253ce"/>
              </g>
              <g id="Group_8586" data-name="Group 8586" transform="translate(6.112 6.062)">
                <path id="Path_10257" data-name="Path 10257" d="M256,254.776v0Z" transform="translate(-256 -254.776)" fill="#1dd882"/>
              </g>
              <g id="Group_8587" data-name="Group 8587" transform="translate(6.112 6.062)">
                <path id="Path_10258" data-name="Path 10258" d="M256,254.81v0Z" transform="translate(-256 -254.776)" fill="#1dd882"/>
              </g>
              <g id="Group_8588" data-name="Group 8588" transform="translate(6.112 6.062)">
                <path id="Path_10259" data-name="Path 10259" d="M262.112,254.826c0-.017,0-.033,0-.05H256v0l4.288,4.4A6.093,6.093,0,0,0,262.112,254.826Z" transform="translate(-256 -254.776)" fill="#7584f2"/>
              </g>
              <g id="Group_8589" data-name="Group 8589" transform="translate(6.111 6.066)">
                <path id="Path_10260" data-name="Path 10260" d="M255.971,254.89v6.157s0,0,0,0a6.092,6.092,0,0,0,4.288-1.757Z" transform="translate(-255.969 -254.89)" fill="#a3d4ff"/>
              </g>
            </g>
          </g>
        </g>
      </g>
    </g>
  </g>
  <g id="Group_8596" data-name="Group 8596" transform="translate(8.366 2.267)">
    <path id="Path_10261" data-name="Path 10261" d="M208.21,55.275,206.1,58.594l-2.134-3.319Z" transform="translate(-203.968 -55.275)" fill="#555a66"/>
  </g>
  <g id="Group_8597" data-name="Group 8597" transform="translate(10.5 2.267)">
    <path id="Path_10262" data-name="Path 10262" d="M258.108,55.275H256v3.318h0Z" transform="translate(-256 -55.275)" fill="#333940"/>
  </g>
  <g id="Group_8604" data-name="Group 8604" transform="translate(7.94 7.942)">
    <g id="Group_8603" data-name="Group 8603">
      <g id="Group_8602" data-name="Group 8602">
        <g id="Group_8601" data-name="Group 8601">
          <g id="Group_8600" data-name="Group 8600">
            <g id="Group_8599" data-name="Group 8599">
              <g id="Group_8598" data-name="Group 8598">
                <circle id="Ellipse_370" data-name="Ellipse 370" cx="1.809" cy="1.809" r="1.809" transform="translate(0 2.558) rotate(-45)" fill="#fff"/>
              </g>
            </g>
          </g>
        </g>
      </g>
    </g>
  </g>
  <g id="Group_8611" data-name="Group 8611" transform="translate(10.5 8.691)">
    <g id="Group_8610" data-name="Group 8610">
      <g id="Group_8609" data-name="Group 8609">
        <g id="Group_8608" data-name="Group 8608">
          <g id="Group_8607" data-name="Group 8607">
            <g id="Group_8606" data-name="Group 8606">
              <g id="Group_8605" data-name="Group 8605">
                <path id="Path_10263" data-name="Path 10263" d="M256,211.891h0v3.618a1.809,1.809,0,1,0,0-3.618Z" transform="translate(-255.999 -211.891)" fill="#e9edf5"/>
              </g>
            </g>
          </g>
        </g>
      </g>
    </g>
  </g>
</svg>
