<svg xmlns="http://www.w3.org/2000/svg" xmlns:xlink="http://www.w3.org/1999/xlink" width="61" height="61" viewBox="0 0 61 61"><defs><style>.a,.b{fill:#fff;}.a{stroke:#707070;}.b{stroke:#dbe3e9;}.c{clip-path:url(#a);}.d{stroke:none;}.e{fill:none;}</style><clipPath id="a"><rect class="a" width="40" height="26" transform="translate(760 650)"/></clipPath></defs><g transform="translate(-773 -534)"><g class="b" transform="translate(773 534)"><rect class="d" width="61" height="61" rx="30.5"/><rect class="e" x="0.5" y="0.5" width="60" height="60" rx="30"/></g><g class="c" transform="translate(24 -98)"><path d="M70.091,307.977v-14.54h2.732l4.439,6.886,4.439-6.886h2.732v14.54H81.871V297.562l-4.638,6.858h-.085l-4.553-6.8v10.386h-2.5Zm20.857.228c-2.049,0-3.9-1.2-3.9-3.386v-.028c0-2.362,1.85-3.528,4.524-3.528a9.654,9.654,0,0,1,2.959.455v-.256c0-1.565-.967-2.39-2.732-2.39a7.429,7.429,0,0,0-3.13.683l-.654-1.963a9.318,9.318,0,0,1,4.126-.882,4.887,4.887,0,0,1,3.642,1.224,4.639,4.639,0,0,1,1.2,3.386v6.516H94.533v-1.366A4.663,4.663,0,0,1,90.948,308.2Zm.711-1.821c1.65,0,2.931-.967,2.931-2.362v-.74a6.948,6.948,0,0,0-2.5-.427c-1.622,0-2.589.683-2.589,1.821v.028C89.525,305.786,90.464,306.383,91.659,306.383Zm11.866,1.793c-1.85,0-3.158-.8-3.158-3.215v-5.776H98.972v-2.163h1.394v-3.016h2.5v3.016h2.959v2.163H102.87v5.378a1.2,1.2,0,0,0,1.337,1.366,3.335,3.335,0,0,0,1.565-.37v2.049A4.044,4.044,0,0,1,103.525,308.176Zm4.837-.2V292.811h2.5v5.89a3.974,3.974,0,0,1,3.415-1.906c2.476,0,3.9,1.65,3.9,4.183v7h-2.5v-6.232c0-1.707-.854-2.675-2.362-2.675a2.451,2.451,0,0,0-2.476,2.732v6.2h-2.476Zm23.276.114-5.065-14.654h2.76l3.471,10.784,3.585-10.813h2.163l3.585,10.813,3.471-10.784h2.675l-5.065,14.654H141l-3.585-10.443-3.585,10.443Zm20.63.114c-2.049,0-3.9-1.2-3.9-3.386v-.028c0-2.362,1.85-3.528,4.524-3.528a9.654,9.654,0,0,1,2.959.455v-.256c0-1.565-.967-2.39-2.732-2.39a7.429,7.429,0,0,0-3.13.683l-.654-1.963a9.318,9.318,0,0,1,4.126-.882,4.887,4.887,0,0,1,3.642,1.224,4.64,4.64,0,0,1,1.2,3.386v6.516h-2.447v-1.366A4.709,4.709,0,0,1,152.267,308.2Zm.683-1.821c1.65,0,2.931-.967,2.931-2.362v-.74a6.948,6.948,0,0,0-2.5-.427c-1.622,0-2.589.683-2.589,1.821v.028C150.816,305.786,151.755,306.383,152.95,306.383Zm8.451,1.593V292.811h2.5v15.166Zm5.919,0V292.811h2.5v15.166Zm10.784.256a5.471,5.471,0,0,1-5.634-5.691v-.028a5.45,5.45,0,0,1,5.349-5.719c3.5,0,5.264,2.732,5.264,5.89,0,.228-.028.455-.028.711H175a3.052,3.052,0,0,0,3.158,2.789,3.926,3.926,0,0,0,2.959-1.309l1.48,1.309A5.557,5.557,0,0,1,178.1,308.233Zm-3.158-6.516h5.634c-.171-1.622-1.11-2.874-2.789-2.874A2.973,2.973,0,0,0,174.946,301.717Zm14.313,6.459c-1.85,0-3.158-.8-3.158-3.215v-5.776h-1.394v-2.163H186.1v-3.016h2.5v3.016h2.959v2.163H188.6v5.378a1.2,1.2,0,0,0,1.337,1.366,3.335,3.335,0,0,0,1.565-.37v2.049A4.044,4.044,0,0,1,189.258,308.176Zm-139.285-9.9a2.093,2.093,0,1,1,2.959,0A2.078,2.078,0,0,1,49.973,298.274Zm-7,7.028a1.569,1.569,0,1,1,2.219,0A1.6,1.6,0,0,1,42.973,305.3Zm11.069-3.7a1.569,1.569,0,1,1,2.219,0A1.546,1.546,0,0,1,54.042,301.6Zm-3.7,3.7a1.569,1.569,0,1,1,2.219,0A1.6,1.6,0,0,1,50.343,305.3Zm7.768-.37a1.046,1.046,0,1,1,1.48,0A1.065,1.065,0,0,1,58.111,304.932Zm-3.7,3.7a1.046,1.046,0,1,1,1.48,0A1.065,1.065,0,0,1,54.412,308.631Zm-8.138-6.658a2.093,2.093,0,1,1,2.959,0A2.078,2.078,0,0,1,46.274,301.973Zm0-7.37a2.093,2.093,0,1,1,2.959,0A2.131,2.131,0,0,1,46.274,294.6ZM42.6,298.274a2.093,2.093,0,1,1,2.959,0A2.078,2.078,0,0,1,42.6,298.274Zm-7.427,0a2.093,2.093,0,1,1,2.959,0A2.078,2.078,0,0,1,35.177,298.274ZM28.149,305.3a1.569,1.569,0,1,1,2.219,0A1.6,1.6,0,0,1,28.149,305.3Zm11.1-3.7a1.569,1.569,0,1,1,2.219,0A1.546,1.546,0,0,1,39.246,301.6Zm-3.7,3.7a1.569,1.569,0,1,1,2.219,0A1.6,1.6,0,0,1,35.547,305.3Zm-14.4-.37a1.046,1.046,0,1,1,1.48,0A1.065,1.065,0,0,1,21.149,304.932Zm3.7,3.7a1.046,1.046,0,1,1,1.48,0A1.065,1.065,0,0,1,24.848,308.631Zm14.768,0a1.046,1.046,0,1,1,1.48,0A1.065,1.065,0,0,1,39.616,308.631ZM24.478,301.6a1.569,1.569,0,1,1,2.219,0A1.546,1.546,0,0,1,24.478,301.6Zm7,.37a2.093,2.093,0,1,1,2.959,0A2.078,2.078,0,0,1,31.478,301.973Zm0-7.37a2.093,2.093,0,1,1,2.959,0A2.131,2.131,0,0,1,31.478,294.6Zm-3.7,3.671a2.093,2.093,0,1,1,2.959,0A2.078,2.078,0,0,1,27.779,298.274Z" transform="translate(739.719 362.674)"/></g></g></svg>