<svg xmlns="http://www.w3.org/2000/svg" width="61" height="61" viewBox="0 0 61 61"><defs><style>.a{fill:#fff;stroke:#dbe3e9;}.b{fill:#e17726;stroke:#e17726;}.b,.c,.d,.e,.f,.g,.h,.i,.j,.k{stroke-linecap:round;stroke-linejoin:round;stroke-width:0.25px;}.c{fill:#e27625;stroke:#e27625;}.d{fill:#d5bfb2;stroke:#d5bfb2;}.e{fill:#233447;stroke:#233447;}.f{fill:#cc6228;stroke:#cc6228;}.g{fill:#e27525;stroke:#e27525;}.h{fill:#f5841f;stroke:#f5841f;}.i{fill:#c0ac9d;stroke:#c0ac9d;}.j{fill:#161616;stroke:#161616;}.k{fill:#763e1a;stroke:#763e1a;}.l{stroke:none;}.m{fill:none;}</style></defs><g transform="translate(-773 -346)"><g class="a" transform="translate(773 346)"><rect class="l" width="61" height="61" rx="30.5"/><rect class="m" x="0.5" y="0.5" width="60" height="60" rx="30"/></g><g transform="translate(-70.948 -20.262)"><path class="b" d="M30.383,1,19.824,8.812l1.963-4.6Z" transform="translate(856.256 383.262)"/><path class="c" d="M2.663,1,13.127,8.885,11.258,4.208Z" transform="translate(859.622 383.262)"/><path class="c" d="M27.544,23.533l-2.809,4.292,6.015,1.656,1.723-5.854Z" transform="translate(855.293 378.843)"/><path class="c" d="M1.273,23.627l1.713,5.854,6.005-1.656-2.8-4.292Z" transform="translate(859.894 378.843)"/><path class="c" d="M10.063,13.633,8.392,16.154l5.953.271-.2-6.406Z" transform="translate(858.498 381.493)"/><path class="c" d="M24.106,13.615,19.96,9.928l-.136,6.479,5.953-.271Z" transform="translate(856.256 381.511)"/><path class="c" d="M10.873,27.858l3.6-1.74-3.1-2.417Z" transform="translate(858.012 378.81)"/><path class="c" d="M20.266,26.119l3.593,1.74L23.368,23.7Z" transform="translate(856.17 378.81)"/><path class="d" d="M23.858,28.448l-3.593-1.74.292,2.333-.031.99Z" transform="translate(856.17 378.22)"/><path class="d" d="M10.873,28.448l3.342,1.583-.021-.99.282-2.333Z" transform="translate(858.012 378.22)"/><path class="e" d="M14.38,21.334l-2.987-.875,2.11-.969Z" transform="translate(857.91 379.636)"/><path class="e" d="M20.513,21.334l.877-1.844,2.12.969Z" transform="translate(856.121 379.636)"/><path class="f" d="M10.19,27.825l.522-4.292-3.321.094Z" transform="translate(858.694 378.843)"/><path class="f" d="M24.1,23.533l.512,4.292,2.809-4.2Z" transform="translate(855.418 378.843)"/><path class="f" d="M25.777,17.651l-5.953.271.553,3.052.877-1.844,2.12.969Z" transform="translate(856.256 379.996)"/><path class="f" d="M10.8,20.1l2.11-.969.877,1.844.553-3.052-5.953-.271Z" transform="translate(858.498 379.996)"/><path class="g" d="M8.392,17.651l2.5,4.865L10.8,20.1Z" transform="translate(858.498 379.996)"/><path class="g" d="M24.218,20.1l-.094,2.417,2.5-4.865Z" transform="translate(855.413 379.996)"/><path class="g" d="M15.662,17.987l-.554,3.052.7,3.6.157-4.75Z" transform="translate(857.181 379.93)"/><path class="g" d="M19.753,17.987l-.292,1.9.146,4.76.7-3.6Z" transform="translate(856.328 379.93)"/><path class="h" d="M20.342,21.571l-.7,3.6.5.354,3.1-2.417.094-2.417Z" transform="translate(856.292 379.399)"/><path class="h" d="M11.393,20.7l.084,2.417,3.1,2.417.5-.354-.7-3.6Z" transform="translate(857.91 379.399)"/><path class="i" d="M18.685,30.455l.031-.99-.271-.229H14.455l-.261.229.021.99-3.342-1.583,1.17.958,2.371,1.635h4.062l2.381-1.635,1.159-.958Z" transform="translate(858.012 377.796)"/><path class="j" d="M19.234,26.622l-.5-.354H15.788l-.5.354L15,28.955l.261-.229h3.989l.272.229Z" transform="translate(857.201 378.307)"/><path class="k" d="M30.918,9.323l.888-4.312L30.469,1l-10.2,7.552,3.927,3.312,5.546,1.615,1.222-1.427-.533-.385.846-.771-.647-.5.846-.646Z" transform="translate(856.17 383.262)"/><path class="k" d="M1,5.01l.9,4.312-.574.427.856.646-.647.5.846.771-.533.385,1.222,1.427,5.546-1.615L12.54,8.552,2.337,1Z" transform="translate(859.948 383.262)"/><path class="h" d="M30.495,16.129l-5.546-1.615,1.671,2.521-2.5,4.865,3.3-.042h4.929Z" transform="translate(855.413 380.611)"/><path class="h" d="M8.667,14.515,3.121,16.129,1.273,21.859H6.192l3.3.042L7,17.036Z" transform="translate(859.894 380.611)"/><path class="h" d="M18.555,15.439l.355-6.1,1.608-4.344H13.354l1.608,4.344.355,6.1.136,1.917.01,4.74h2.945l.01-4.74Z" transform="translate(857.525 382.479)"/></g></g></svg>