<svg xmlns="http://www.w3.org/2000/svg" width="21" height="21" viewBox="0 0 21 21">
  <g id="clairaudience" transform="translate(-2 -2)">
    <circle id="Ellipse_371" data-name="Ellipse 371" cx="10.5" cy="10.5" r="10.5" transform="translate(2 2)" fill="#8f6af4"/>
    <circle id="Ellipse_372" data-name="Ellipse 372" cx="7.7" cy="7.7" r="7.7" transform="translate(4.8 4.8)" fill="#f0ae42"/>
    <path id="Path_10264" data-name="Path 10264" d="M24.318,17.337a7.7,7.7,0,0,0-4.749-7.113A7.7,7.7,0,0,0,14.717,24.8a7.7,7.7,0,0,0,9.6-7.463Z" transform="translate(-5.168 -5.187)" fill="#f9d266"/>
    <path id="Path_10265" data-name="Path 10265" d="M26.6,25.5l-1.52,1.52a6.76,6.76,0,0,1-9.56,0L14,25.5l1.52-1.52a6.76,6.76,0,0,1,9.56,0Z" transform="translate(-7.8 -13)" fill="#f2f2f2"/>
    <path id="Path_10266" data-name="Path 10266" d="M29.352,26.206a2.45,2.45,0,1,1-3.8,0,8.894,8.894,0,0,1,3.805,0Z" transform="translate(-14.95 -15.6)" fill="#686868"/>
    <path id="Path_10267" data-name="Path 10267" d="M26.6,25.5l-2.322-1.161a8.9,8.9,0,0,0-7.956,0L14,25.5l1.52-1.52a6.76,6.76,0,0,1,9.56,0Z" transform="translate(-7.8 -13)" fill="#f2b9a1"/>
    <circle id="Ellipse_373" data-name="Ellipse 373" cx="1.05" cy="1.05" r="1.05" transform="translate(11.45 11.1)" fill="#474747"/>
    <g id="Group_8612" data-name="Group 8612" transform="translate(8.564 6.2)">
      <path id="Path_10268" data-name="Path 10268" d="M31,14h.7v1.75H31Z" transform="translate(-27.414 -14)" fill="#fce797"/>
      <path id="Path_10269" data-name="Path 10269" d="M0,0H1.75V.7H0Z" transform="translate(6.137 2.203) rotate(-45)" fill="#fce797"/>
      <path id="Path_10270" data-name="Path 10270" d="M0,0H.7V1.75H0Z" transform="translate(0 1.461) rotate(-45)" fill="#fce797"/>
    </g>
  </g>
</svg>
