<svg xmlns="http://www.w3.org/2000/svg" width="20" height="20" viewBox="0 0 20 20"><defs><style>.a{fill:#ec681c;}.b{fill:#fff;}</style></defs><g transform="translate(-0.5 -0.5)"><circle class="a" cx="10" cy="10" r="10" transform="translate(0.5 0.5)"/><path class="b" d="M131.12,104.777c0-.106,0-.2.007-.3a4.751,4.751,0,0,1,1.338-3.022,5.29,5.29,0,0,1,.68-.585,4.879,4.879,0,0,1,1.585-.754c1.194-.331,2.33-.021,3.358-.867a2.981,2.981,0,0,0,.825-1.064,3.037,3.037,0,0,0,.231-.754c.007-.063.015-.127.022-.191a2.009,2.009,0,0,0,.014-.359c0-.092-.014-.183-.021-.275a1.565,1.565,0,0,0-.065-.359,3.026,3.026,0,0,0-1.9-2.106,3.076,3.076,0,0,0-.623-.155,3.127,3.127,0,0,0-.63-.028,2.809,2.809,0,0,0-.427.056,3.2,3.2,0,0,0-.449.119,3.088,3.088,0,0,0-1.252.824,2.778,2.778,0,0,0-.254.317,3.093,3.093,0,0,0-.338.648,2.228,2.228,0,0,0-.116.373c-.022.106-.036.2-.051.309a1.571,1.571,0,0,0-.014.317v.028h-1.911c0-.014-.007-.028-.007-.042,0-.1.007-.2.007-.3a4.442,4.442,0,0,1,.187-1.028,4.645,4.645,0,0,1,.565-1.212,4.961,4.961,0,0,1,2.417-1.938,4.505,4.505,0,0,1,.84-.232,4.869,4.869,0,0,1,.55-.07c.2-.014.4-.014.6-.014a2.3,2.3,0,0,1,.231.014c.138.014.275.035.413.056a4.379,4.379,0,0,1,.586.134,5.4,5.4,0,0,1,.869.345,5.173,5.173,0,0,1,.543.324,4.854,4.854,0,0,1,1.477,1.6,5.167,5.167,0,0,1,.333.7,4.406,4.406,0,0,1,.224.8,4.288,4.288,0,0,1,.072.8c-.007.148,0,.3-.014.444s-.029.289-.051.43a4.908,4.908,0,0,1-.181.711,4.911,4.911,0,0,1-.659,1.261,4.7,4.7,0,0,1-.644.722,4.287,4.287,0,0,1-.528.423c-.145.1-.3.19-.449.275a4.346,4.346,0,0,1-.637.3,4.071,4.071,0,0,1-.63.19,10.126,10.126,0,0,1-1.4.155,2.542,2.542,0,0,0-.608.113,3.1,3.1,0,0,0-1.542,1.014.158.158,0,0,1-.029.042c.014,0,.021.007.036.007h7.282a.126.126,0,0,1,.05.007v1.8Z" transform="translate(-125.434 -88.07)"/><path class="b" d="M229.86,189.359a1.127,1.127,0,0,1-.376.909,1.187,1.187,0,0,1-1.288.186,1.127,1.127,0,0,1-.657-1.095v-.007a1.159,1.159,0,0,1,1.245-1.057A1.128,1.128,0,0,1,229.86,189.359Z" transform="translate(-218.022 -180.535)"/></g></svg>