<svg id="Layer_1" data-name="Layer 1" xmlns="http://www.w3.org/2000/svg" viewBox="0 0 298 298"><defs><style>.cls-1{fill:#f7edf4;}.cls-2,.cls-3{fill:#ff007a;}.cls-3{fill-rule:evenodd;}</style></defs><circle class="cls-1" cx="149" cy="149" r="149"/><path class="cls-2" d="M66,44.1c-2.1-.3-2.2-.4-1.2-.5a33,33,0,0,1,9.4.8c7.2,1.7,13.7,6.1,20.6,13.8l1.8,2.1,2.6-.4a55.76,55.76,0,0,1,32,4,41.45,41.45,0,0,1,7.2,4.2,9.67,9.67,0,0,1,.7,2.8c.7,4.7.4,8.2-1.1,10.9-.8,1.5-.8,1.9-.3,3.2a3,3,0,0,0,2.7,1.7c2.4,0,4.9-3.8,6.1-9.1l.5-2.1.9,1c5.1,5.7,9.1,13.6,9.7,19.2l.2,1.5-.9-1.3a16.89,16.89,0,0,0-4.8-5.1c-3.4-2.3-7-3-16.5-3.5-8.6-.5-13.5-1.2-18.3-2.8-8.2-2.7-12.4-6.2-22.1-19.1A91.91,91.91,0,0,0,85.5,54C79.6,48.3,73.7,45.3,66,44.1Z" transform="translate(64.85 42)"/><path class="cls-2" d="M140.5,56.8a21.63,21.63,0,0,1,1.8-8.6,6.89,6.89,0,0,1,.9-1.7c.1,0-.1.7-.4,1.5a19.1,19.1,0,0,0-.4,8.8c.7,4.5,1,5.1,5.8,10,2.2,2.3,4.8,5.2,5.8,6.4l1.7,2.2L154,73.8a60.87,60.87,0,0,0-8-6.3c-.7-.4-.8-.4-1.3.1s-.5,1-.5,3.9c-.1,4.5-.7,7.3-2.2,10.2-.8,1.5-.9,1.2-.2-.5.5-1.3.6-1.9.6-6.2,0-8.7-1-10.8-7.1-14.3-1.5-.9-4.1-2.2-5.6-2.9a22.15,22.15,0,0,1-2.7-1.3c.2-.2,6.1,1.5,8.4,2.5,3.5,1.4,4.1,1.5,4.5,1.4C140.2,60.1,140.4,59.3,140.5,56.8Z" transform="translate(64.85 42)"/><path class="cls-2" d="M70.1,71.7c-4.2-5.8-6.9-14.8-6.3-21.5l.2-2.1,1,.2a23.47,23.47,0,0,1,6.4,2.4c4,2.4,5.8,5.7,7.5,13.9.5,2.4,1.2,5.2,1.5,6.1a36.1,36.1,0,0,0,4,7.2c1.1,1.6.4,2.4-2.1,2.2C78.5,79.7,73.4,76.2,70.1,71.7Z" transform="translate(64.85 42)"/><path class="cls-2" d="M135.4,115.2c-19.8-8-26.8-14.9-26.8-26.6,0-1.7.1-3.1.1-3.1a18.79,18.79,0,0,1,1.7,1.3c4,3.2,8.5,4.6,21,6.4,7.3,1.1,11.5,1.9,15.3,3.2,12.1,4,19.6,12.2,21.4,23.3a40.45,40.45,0,0,1-.6,12.5c-.7,2.5-2.7,7.1-3.2,7.2-.1,0-.3-.5-.3-1.3a16.27,16.27,0,0,0-5.8-11.3C154,123.2,148.6,120.5,135.4,115.2Z" transform="translate(64.85 42)"/><path class="cls-2" d="M121.4,118.5a23.69,23.69,0,0,0-1-4.2l-.5-1.5.9,1.1a17.61,17.61,0,0,1,3.2,5.8c.7,1.9.7,2.5.7,5.6s-.1,3.7-.7,5.4a18.09,18.09,0,0,1-4.2,6.7c-3.6,3.7-8.3,5.7-15,6.6-1.2.1-4.6.4-7.6.6-7.5.4-12.5,1.2-17,2.8-.6.2-1.2.4-1.3.3s2.9-2,5.4-3.2c3.5-1.7,7.1-2.6,15-4a68.51,68.51,0,0,0,8.9-1.8C118.1,135.6,123,127.9,121.4,118.5Z" transform="translate(64.85 42)"/><path class="cls-2" d="M130.5,134.6q-3.9-8.55-1.8-16.2c.2-.5.4-1,.6-1a4.3,4.3,0,0,1,1.4.7c1.2.8,3.7,2.2,10.1,5.7,8.1,4.4,12.7,7.8,15.9,11.7a24.73,24.73,0,0,1,5.3,12.1,39.66,39.66,0,0,1-.5,11.9c-2.2,8.5-7.2,15.3-14.5,19.2a13.9,13.9,0,0,1-2.1,1,8,8,0,0,1,.9-2.2,19.85,19.85,0,0,0,.9-15.5c-1.1-3.4-3.4-7.5-8-14.4C133.2,139.6,131.9,137.5,130.5,134.6Z" transform="translate(64.85 42)"/><path class="cls-2" d="M56,165.2c7.4-6.2,16.5-10.6,24.9-12a37.05,37.05,0,0,1,12.9.5c5.3,1.4,10.1,4.4,12.6,8.1s3.5,6.7,4.6,13.6c.4,2.7.9,5.5,1,6.1.8,3.6,2.4,6.4,4.4,7.9,3.1,2.3,8.5,2.4,13.8.4a6.72,6.72,0,0,1,1.7-.5c.2.2-2.5,2-4.3,2.9a14.16,14.16,0,0,1-7.2,1.7c-4.8,0-8.9-2.5-12.2-7.5a56.22,56.22,0,0,1-3.3-6.6c-3.5-8.1-5.3-10.5-9.4-13.2-3.6-2.3-8.2-2.8-11.7-1.1a7.53,7.53,0,0,0-2.6,11.7,10.22,10.22,0,0,0,5.7,3,6.1,6.1,0,0,0,6.9-6.1c0-2.4-.9-3.8-3.3-4.9-3.2-1.4-6.7.2-6.6,3.3a2.75,2.75,0,0,0,1.9,2.7c.8.4.8.4.2.3-2.9-.6-3.6-4.2-1.3-6.5,2.8-2.8,8.7-1.6,10.7,2.3a10.48,10.48,0,0,1,.2,6.8c-1.7,4.4-6.5,6.7-11.4,5.4-3.3-.9-4.7-1.8-8.7-5.9-7-7.2-9.7-8.6-19.7-10.1l-1.9-.3Z" transform="translate(64.85 42)"/><path class="cls-3" d="M3.4,4.3C26.7,32.6,62.6,76.6,64.4,79c1.5,2,.9,3.9-1.6,5.3a15.3,15.3,0,0,1-5.7,1.6,7.22,7.22,0,0,1-4.8-2.1c-.9-.9-4.8-6.6-13.6-20.3C32,53,26.3,44.3,26.2,44.2c-.4-.2-.4-.2,11.8,21.6C45.7,79.5,48.2,84.4,48.2,85c0,1.3-.4,2-2,3.8-2.7,3-3.9,6.4-4.8,13.5-1,7.9-3.7,13.5-11.4,23-4.5,5.6-5.2,6.6-6.3,8.9a16.91,16.91,0,0,0-2,8A25,25,0,0,0,23,152c1,3.2,2.1,5.3,4.8,9.4,2.3,3.6,3.7,6.3,3.7,7.3,0,.8.2.8,3.8,0,8.6-2,15.7-5.4,19.6-9.6,2.4-2.6,3-4,3-7.6a8.16,8.16,0,0,0-.7-4.2c-1-2.2-2.9-4-7-6.8-5.4-3.7-7.7-6.7-8.3-10.7-.5-3.4.1-5.7,3.1-12,3.1-6.5,3.9-9.2,4.4-15.8.3-4.2.8-5.9,2-7.2s2.4-1.9,5.5-2.3c5.1-.7,8.4-2,11-4.5a9.4,9.4,0,0,0,3.4-7.3l.1-2.3L70.1,77C65.4,71.6.3,0,0,0-.1,0,1.5,1.9,3.4,4.3ZM34.1,146.5a4.13,4.13,0,0,0-1.3-5.5c-1.7-1.1-4.3-.6-4.3.9a1,1,0,0,0,.8,1c.9.5,1,1,.3,2.1s-.7,2.1.2,2.8C31.2,148.9,33.1,148.3,34.1,146.5Z" transform="translate(64.85 42)"/><path class="cls-3" d="M74.6,93.9a8.88,8.88,0,0,0-5.4,5.9c-.4,1.6-.2,4.5.5,5.4,1.1,1.4,2.1,1.8,4.9,1.8,5.5,0,10.2-2.4,10.7-5.3.5-2.4-1.6-5.7-4.5-7.2A10.17,10.17,0,0,0,74.6,93.9Zm6.4,5c.8-1.2.5-2.5-1-3.4-2.7-1.7-6.8-.3-6.8,2.3,0,1.3,2.1,2.7,4.1,2.7A5.52,5.52,0,0,0,81,98.9Z" transform="translate(64.85 42)"/></svg>