<svg xmlns="http://www.w3.org/2000/svg" width="61" height="61" viewBox="0 0 61 61"><defs><style>.a{fill:#fff;stroke:#dbe3e9;}.b{fill:#3b99fc;}.c{stroke:none;}.d{fill:none;}</style></defs><g transform="translate(-773 -628)"><g class="a" transform="translate(773 628)"><rect class="c" width="61" height="61" rx="30.5"/><rect class="d" x="0.5" y="0.5" width="60" height="60" rx="30"/></g><g transform="translate(785.962 647.66)"><g transform="translate(0.038 0.34)"><path class="b" d="M7.15,4.5a14.728,14.728,0,0,1,20.517,0l.682.668a.7.7,0,0,1,0,1L26.017,8.456a.368.368,0,0,1-.513,0l-.938-.919a10.275,10.275,0,0,0-14.313,0l-1,.984a.368.368,0,0,1-.513,0L6.4,6.238a.7.7,0,0,1,0-1ZM32.491,9.224l2.076,2.033a.7.7,0,0,1,0,1l-9.361,9.165a.736.736,0,0,1-1.026,0h0l-6.644-6.5a.184.184,0,0,0-.256,0h0l-6.644,6.5a.736.736,0,0,1-1.026,0h0L.25,12.26a.7.7,0,0,1,0-1L2.326,9.223a.736.736,0,0,1,1.026,0L10,15.728a.184.184,0,0,0,.256,0h0l6.643-6.5a.736.736,0,0,1,1.026,0h0l6.644,6.5a.184.184,0,0,0,.256,0l6.644-6.5A.736.736,0,0,1,32.491,9.224Z" transform="translate(-0.038 -0.34)"/></g></g></g></svg>