<svg xmlns="http://www.w3.org/2000/svg" width="1042" height="1042" viewBox="0 0 1042 1042"><defs><style>.a{fill:none;}.b{fill:#ffc239;}.c{fill:#f2aa19;}.d{fill:#323232;}.e{fill:#f3ba2f;}.f{fill:#fff;}.g{fill:#575756;}.h{fill:#ec681c;}</style></defs><path class="a" d="M198.56,617.2h0a114.4,114.4,0,0,0-31.9-17.26A114.4,114.4,0,0,1,198.56,617.2Z"/><path class="a" d="M173.08,748.41l1.53-.17Z"/><path class="a" d="M103.4,594.1q9.24,13.18,18.89,25.84Q112.66,607.28,103.4,594.1Z"/><path class="a" d="M246.5,760.67c-24.39-12.91-49.62-14.57-68.76-12.77C196.87,746.1,222.12,747.77,246.5,760.67Z"/><path class="a" d="M371.7,21.84a729.79,729.79,0,0,0-63.2,101A729.79,729.79,0,0,1,371.7,21.84Z"/><path class="a" d="M181,470.24h0c-20.65-23.6-47.83-34.16-67.11-38.45C133.15,436.07,160.33,446.64,181,470.24Z"/><path class="a" d="M267.19,613.85C287.41,546.14,317.5,486,354,435.07,317.5,486,287.4,546.15,267.19,613.85Z"/><path class="a" d="M143.17,369.27a777.4,777.4,0,0,1-32.27-104.6,779.58,779.58,0,0,0,32.27,104.62Z"/><path class="a" d="M256.33,479.29c14-23.35,36.81-34.3,56.67-39.54C293.14,445,270.37,455.93,256.33,479.29Z"/><path class="a" d="M377.72,798.1q-.17-19.59.92-38.63Q377.56,778.5,377.72,798.1Z"/><path class="a" d="M340.44,555.51a132.29,132.29,0,0,0-33.34,16.27A133,133,0,0,1,340.44,555.51Z"/><path class="a" d="M319,740.61c5.44-36.46,33.8-57.76,53.24-68.8C352.72,682.87,324.38,704.14,319,740.61Z"/><path class="b" d="M403.13,209.35c0-.13,0-.2,0-.2.09.61-55.14-27-101,1a107.18,107.18,0,0,1-16.3,12.75c-39.93,35.91-55.7,89.69-38,113.67a29.11,29.11,0,0,0,7.74,7.46C299.48,288.9,349.82,243.79,403.13,209.35Z"/><path class="c" d="M345.25,317.17c2.46-1.95,4.89-3.94,7.31-6,37.74-33.21,48.68-97.06,50.57-101.79C349.82,243.79,299.48,288.9,255.58,344a31.36,31.36,0,0,0,6.33,3.06c.48-.55.91-1.11,1.38-1.64C287.57,318.27,322.93,315.87,345.25,317.17Z"/><path class="b" d="M367.59,320.36c0-.14,0-.21,0-.2a142.16,142.16,0,0,0-22.34-3c-22.32-1.3-57.68,1.1-82,28.25-.47.53-.9,1.09-1.38,1.64C223.93,390.14,216,452,239.48,473.53a29.06,29.06,0,0,0,9,5.83C281.18,417.08,322,363.66,367.59,320.36Z"/><path class="c" d="M313,439.75a147.7,147.7,0,0,1,18.46-3.59c2-2.37,4.06-4.75,6-7.28,30.77-39.6,29.2-103.61,30.09-108.52-45.55,43.3-86.41,96.72-119.1,159a31.85,31.85,0,0,0,6.8,1.81c.36-.64.67-1.24,1-1.88C270.37,455.93,293.14,445,313,439.75Z"/><path class="b" d="M354,434.87a143.72,143.72,0,0,0-22.5,1.29A147.7,147.7,0,0,0,313,439.75c-19.86,5.24-42.63,16.19-56.67,39.54-.37.64-.68,1.24-1,1.88C226.13,530.53,230,593,257.23,609.8a28.47,28.47,0,0,0,10,4.05C287.4,546.15,317.5,486,354,435.07A.76.76,0,0,1,354,434.87Z"/><path class="c" d="M307.1,571.78a132.29,132.29,0,0,1,33.34-16.27c1.57-2.7,3.07-5.48,4.55-8.31,22.72-44.89,9.08-107.17,9-112.13-36.5,50.9-66.59,111.07-86.81,178.78a30.51,30.51,0,0,0,7,.5c.25-.69.43-1.37.67-2.05C281.56,593.88,293.86,580.94,307.1,571.78Z"/><path class="b" d="M362.28,550a145.31,145.31,0,0,0-21.84,5.54,133,133,0,0,0-33.34,16.27c-13.24,9.16-25.54,22.1-32.22,40.52-.24.68-.42,1.36-.67,2.05C255,668.61,271,729.88,301.1,741.46a30,30,0,0,0,10.6,2.15c6.44-71.16,24.49-136.39,50.65-193.46A1.32,1.32,0,0,1,362.28,550Z"/><path class="c" d="M372.19,671.81c1-3,1.95-6,2.85-9.12,13.54-48.81-11.66-107.72-12.69-112.54-26.16,57.07-44.21,122.3-50.65,193.46a30.8,30.8,0,0,0,7-.84c.08-.73.14-1.45.25-2.16C324.38,704.14,352.72,682.87,372.19,671.81Z"/><path class="b" d="M377.72,798.1q-.17-19.59.92-38.63a560.54,560.54,0,0,1,14-97.12c-.07-.12-.12-.17-.11-.18a144.55,144.55,0,0,0-20.37,9.64c-19.44,11-47.8,32.34-53.24,68.8-.11.71-.17,1.43-.25,2.16-8.18,57.57,20.2,115.77,52.38,121.8a29.74,29.74,0,0,0,10.91.17A612.23,612.23,0,0,1,377.72,798.1Z"/><path class="c" d="M392.67,662.35a560.54,560.54,0,0,0-14,97.12q-1.08,19-.92,38.63A612.23,612.23,0,0,0,382,864.74C408.4,860,424,819.52,427.64,772,430.9,720.63,394.59,666.92,392.67,662.35Z"/><path class="c" d="M166.07,165.85q-3.23-29.62-4.22-60.32c-3.89,3.77-51.94,91.36-32.94,154.88,1.07,3.86,2.26,7.57,3.52,11.17,20.92,9.08,50.63,28.5,65.26,64.09.3.7.53,1.44.82,2.15.68-.07,1.34-.17,2-.26-21.9-53.39-33.82-113.95-36-170.14A1.58,1.58,0,0,1,166.07,165.85Z"/><path class="b" d="M132.43,271.58A112.26,112.26,0,0,0,111,264.41l-.1.26a777.4,777.4,0,0,0,32.27,104.6c-1.33-5.62-2.57-11.27-3.61-16.94a1.43,1.43,0,0,1,2.75-.76,481.46,481.46,0,0,0,36,87.94c7.09,13.49,14.08,27.08,22.54,39.78a2.5,2.5,0,0,1,.16.24,31.58,31.58,0,0,0,5.4-4.88c21.06-24.71,14.46-80.64-7.91-136.83-.29-.71-.52-1.45-.82-2.15C183.06,300.08,153.35,280.66,132.43,271.58Z"/><path class="c" d="M181,470.23c-5.77-11.07-10.58-22.4-14.56-31.55a407.24,407.24,0,0,1-23.25-69.39A779.58,779.58,0,0,1,110.9,264.67c-3,4.29-33.26,98.34-2.62,156.87q2.7,5.32,5.59,10.24C133.15,436.07,160.33,446.63,181,470.23Z"/><path class="b" d="M113.87,431.78a109.78,109.78,0,0,0-22.41-2.95,1.27,1.27,0,0,0,0,.27,792.86,792.86,0,0,0,38.29,74.53,1.69,1.69,0,0,1,2.84-.12c18.38,23.82,33,50.29,50.89,74.5,9.85,13.37,19.8,26.86,31.37,38.83,2,2,4,3.91,6.1,5.79a31.54,31.54,0,0,0,4.08-5.44c14.38-25.61,1.86-71.89-24.59-118-7.48-8-13.89-18.34-19.42-28.95C160.33,446.64,133.15,436.07,113.87,431.78Z"/><path class="c" d="M198.56,617.2a265.57,265.57,0,0,1-20.8-28.41c-17.37-27-32.8-55.37-48-83.64a1.55,1.55,0,0,1,0-1.52A792.86,792.86,0,0,1,91.42,429.1c-2.14,4.75-14.06,102.44,27.11,154.35,2.44,3.15,4.93,6.16,7.43,9a135.2,135.2,0,0,1,40.7,7.47A114.4,114.4,0,0,1,198.56,617.2Z"/><path class="b" d="M198.56,617.2a114.4,114.4,0,0,0-31.9-17.26,135.2,135.2,0,0,0-40.7-7.47,111.21,111.21,0,0,0-22.56,1.34,2.06,2.06,0,0,1,0,.29q9.24,13.18,18.89,25.84Q133,634,144.22,647.45c-.47-.93-1-1.83-1.47-2.76-.54-1.08.95-2.43,1.78-1.37C164.23,668.52,184,693,209.19,713c19.65,15.63,40.71,28.33,61.82,41.28,8.93-29.36-14.39-75-51.44-116.6A145,145,0,0,1,198.56,617.2Z"/><path class="c" d="M144.22,647.45Q133,634,122.29,619.94q-9.63-12.66-18.89-25.84c-1.23,5,5.65,103.66,56.25,147.4,3,2.7,6,5.17,9,7.55,1.41-.23,2.88-.45,4.38-.64l1.53-.17c1-.12,2.06-.24,3.13-.34,19.14-1.8,44.37-.14,68.76,12.77a110.24,110.24,0,0,1,12.09,7.43c.64.46,1.23.92,1.88,1.38a38.46,38.46,0,0,0,3.48-3.12C214.13,740.28,169.46,696.2,144.22,647.45Z"/><path class="b" d="M246.5,760.67c-24.38-12.9-49.63-14.57-68.76-12.77-1.07.1-2.1.22-3.13.34l-1.53.17c-1.5.19-3,.41-4.38.64a111,111,0,0,0-21.9,5.59s0,.09.07.28q5.58,5.45,11.24,10.74,26.61,24.95,54.72,46.89a1,1,0,0,1,1.6-.07c2.26,2.32,4.63,4.53,7,6.72Q241.9,834.77,263,848.79c9.87,5.61,20,10.74,30.24,15.54C309.62,872,327,876.81,344.1,882c2-33-34.77-77.2-83.63-112.55-.65-.46-1.24-.92-1.88-1.38A110.24,110.24,0,0,0,246.5,760.67Z"/><path class="c" d="M263,848.79q-21.06-14-41.51-29.59C234,830.7,248.11,840.34,263,848.79Z"/><path class="c" d="M212.83,814.07a1.1,1.1,0,0,1,0-1.52q-28.05-22-54.72-46.89-5.66-5.29-11.24-10.74c-.28,5.18,25.85,101.88,84.76,136.14,49.64,29.67,93.21,27.54,107.3,6.52-18.13-6.34-36-15.88-51.13-24A275.37,275.37,0,0,1,212.83,814.07Z"/><path class="b" d="M371.7,21.84c0-.14,0-.2,0-.21.86-.72-76.07,8.21-112.39,71.33-20.81,36.12-28.83,73.63-26,99.82a2.27,2.27,0,0,1-.05-.35c-11.33-60.89-70.59-87.57-71.23-87.14a2.38,2.38,0,0,0-.15.24q1,30.68,4.22,60.32a1.36,1.36,0,0,1,1.59,1.14c8.33,57.83,24.92,112,45.46,165.84.69-.46,1.38-.93,2-1.45,24-19.13,28.86-70.33,20.3-126.27,3.3,12,9.4,20.36,17.82,23.87a25,25,0,0,0,9.94,1.78A728.59,728.59,0,0,1,371.7,21.84Z"/><path class="c" d="M348.47,148.46c28-50.39,22.79-121.22,23.23-126.62A728.59,728.59,0,0,0,263.22,230.76c7.1-.1,14.76-3,22.62-7.89a107.18,107.18,0,0,0,16.3-12.75C318,195.23,334,173.9,348.47,148.46Z"/><path class="a" d="M827.75,620h0a114.58,114.58,0,0,1,31.91-17.26A114.58,114.58,0,0,0,827.75,620Z"/><path class="a" d="M853.24,751.17,851.7,751Z"/><path class="a" d="M922.91,596.86Q913.69,610,904,622.7,913.67,610,922.91,596.86Z"/><path class="a" d="M779.82,763.43c24.39-12.91,49.62-14.57,68.76-12.77C829.44,748.86,804.2,750.53,779.82,763.43Z"/><path class="a" d="M654.62,24.6a731.7,731.7,0,0,1,63.2,100.95A732.29,732.29,0,0,0,654.62,24.6Z"/><path class="a" d="M845.33,473h0c20.65-23.6,47.83-34.16,67.11-38.45C893.16,438.83,866,449.4,845.33,473Z"/><path class="a" d="M759.12,616.61c-20.21-67.71-50.3-127.88-86.8-178.78C708.82,488.73,738.92,548.91,759.12,616.61Z"/><path class="a" d="M883.15,372a778.84,778.84,0,0,0,32.27-104.6,779.58,779.58,0,0,1-32.27,104.62Z"/><path class="a" d="M770,482.05c-14-23.35-36.8-34.3-56.66-39.54C733.18,447.75,755.94,458.69,770,482.05Z"/><path class="a" d="M648.6,800.86q.17-19.59-.93-38.63Q648.75,781.26,648.6,800.86Z"/><path class="a" d="M685.88,558.27a132.46,132.46,0,0,1,33.34,16.27A133.14,133.14,0,0,0,685.88,558.27Z"/><path class="a" d="M707.37,743.37c-5.45-36.46-33.8-57.76-53.24-68.8C673.6,685.63,701.93,706.9,707.37,743.37Z"/><path class="b" d="M623.19,212.11a.76.76,0,0,1,0-.2c-.09.61,55.14-26.95,101,1a107.18,107.18,0,0,0,16.3,12.75c39.92,35.91,55.7,89.69,38,113.67a29.11,29.11,0,0,1-7.74,7.46C726.83,291.66,676.49,246.55,623.19,212.11Z"/><path class="c" d="M681.06,319.93c-2.45-1.95-4.88-3.94-7.31-6-37.73-33.21-48.68-97.06-50.56-101.79,53.3,34.44,103.64,79.55,147.55,134.65a31.36,31.36,0,0,1-6.33,3.06c-.48-.55-.91-1.11-1.39-1.64C738.75,321,703.39,318.63,681.06,319.93Z"/><path class="b" d="M658.73,323.12c0-.14,0-.21,0-.2a142.66,142.66,0,0,1,22.34-3c22.33-1.3,57.69,1.1,82,28.25.48.53.91,1.09,1.39,1.64,38,43.08,45.93,104.94,22.43,126.47a29.06,29.06,0,0,1-9,5.83C745.13,419.84,704.27,366.42,658.73,323.12Z"/><path class="c" d="M713.32,442.51a146.44,146.44,0,0,0-18.46-3.58c-2-2.38-4.07-4.76-6-7.29C658.05,392,659.62,328,658.73,323.12c45.54,43.3,86.4,96.72,119.1,159a31.94,31.94,0,0,1-6.81,1.81c-.35-.64-.66-1.24-1-1.88C755.94,458.69,733.18,447.75,713.32,442.51Z"/><path class="b" d="M672.36,437.63a143.14,143.14,0,0,1,22.5,1.3,146.44,146.44,0,0,1,18.46,3.58c19.86,5.24,42.62,16.19,56.66,39.54.38.64.69,1.24,1,1.88,29.17,49.36,25.27,111.83-1.93,128.63a28.44,28.44,0,0,1-10,4.05c-20.2-67.7-50.3-127.88-86.8-178.78A1.81,1.81,0,0,1,672.36,437.63Z"/><path class="c" d="M719.22,574.54a132.46,132.46,0,0,0-33.34-16.27c-1.57-2.7-3.07-5.48-4.55-8.31-22.72-44.89-9.08-107.17-9-112.13,36.5,50.9,66.59,111.07,86.8,178.78a30.43,30.43,0,0,1-7,.5c-.24-.69-.42-1.37-.67-2.05C744.76,596.64,732.45,583.7,719.22,574.54Z"/><path class="b" d="M664,552.73a145.24,145.24,0,0,1,21.85,5.54,133.14,133.14,0,0,1,33.34,16.27c13.23,9.16,25.54,22.1,32.21,40.52.25.68.43,1.36.67,2.05,19.23,54.26,3.22,115.53-26.89,127.11a29.88,29.88,0,0,1-10.59,2.15C708.17,675.21,690.13,610,664,552.91A.62.62,0,0,0,664,552.73Z"/><path class="c" d="M654.13,674.57c-1-3-2-6-2.85-9.12C637.74,616.64,662.94,557.73,664,552.91c26.17,57.07,44.21,122.3,50.66,193.46a30.8,30.8,0,0,1-7-.84c-.09-.73-.15-1.45-.25-2.16C701.93,706.9,673.6,685.63,654.13,674.57Z"/><path class="b" d="M648.6,800.86q.17-19.59-.93-38.63a559.72,559.72,0,0,0-14-97.12,1.93,1.93,0,0,1,.11-.18,145.16,145.16,0,0,1,20.37,9.64c19.44,11,47.79,32.34,53.24,68.8.1.71.16,1.43.25,2.16,8.18,57.57-20.21,115.77-52.39,121.8a29.69,29.69,0,0,1-10.9.17A614.76,614.76,0,0,0,648.6,800.86Z"/><path class="c" d="M633.65,665.11a559.72,559.72,0,0,1,14,97.12q1.08,19,.93,38.63a614.76,614.76,0,0,1-4.27,66.64c-26.42-4.71-42-45.22-45.65-92.75C595.42,723.39,631.73,669.68,633.65,665.11Z"/><path class="c" d="M860.24,168.61q3.24-29.62,4.22-60.32c3.9,3.77,51.95,91.36,32.95,154.88q-1.62,5.79-3.53,11.17c-20.91,9.08-50.63,28.5-65.25,64.09-.31.7-.54,1.44-.83,2.15-.67-.07-1.34-.17-2-.26,21.89-53.39,33.82-113.95,36-170.14A1.59,1.59,0,0,0,860.24,168.61Z"/><path class="b" d="M893.88,274.34a112.21,112.21,0,0,1,21.44-7.17l.1.26A778.84,778.84,0,0,1,883.15,372c1.32-5.62,2.56-11.27,3.61-16.94a1.43,1.43,0,0,0-2.75-.76,481.46,481.46,0,0,1-36,87.94c-7.09,13.49-14.08,27.08-22.54,39.78a1.46,1.46,0,0,0-.17.24,31.53,31.53,0,0,1-5.39-4.88c-21.07-24.71-14.46-80.63,7.9-136.83.29-.71.52-1.45.83-2.15C843.25,302.84,873,283.42,893.88,274.34Z"/><path class="c" d="M845.33,473c5.78-11.07,10.58-22.4,14.57-31.55a407.82,407.82,0,0,0,23.25-69.39,779.58,779.58,0,0,0,32.27-104.62c3,4.29,33.25,98.34,2.61,156.87q-2.7,5.32-5.59,10.24C893.16,438.83,866,449.39,845.33,473Z"/><path class="b" d="M912.44,434.54a109.93,109.93,0,0,1,22.41-3s0,.07,0,.28a796.24,796.24,0,0,1-38.28,74.52,1.69,1.69,0,0,0-2.84-.12c-18.38,23.82-33,50.29-50.89,74.51-9.85,13.36-19.8,26.85-31.38,38.82-2,2-4,3.91-6.09,5.79a31.54,31.54,0,0,1-4.08-5.44c-14.39-25.61-1.86-71.89,24.59-118,7.47-8,13.88-18.34,19.41-28.95C866,449.4,893.16,438.83,912.44,434.54Z"/><path class="c" d="M827.75,620a265.72,265.72,0,0,0,20.81-28.41c17.36-27,32.8-55.37,48-83.64a1.55,1.55,0,0,0,0-1.52,796.24,796.24,0,0,0,38.28-74.52C937,436.62,949,534.3,907.78,586.21c-2.43,3.15-4.92,6.16-7.42,9a135.2,135.2,0,0,0-40.7,7.47A114.58,114.58,0,0,0,827.75,620Z"/><path class="b" d="M827.75,620a114.58,114.58,0,0,1,31.91-17.26,135.2,135.2,0,0,1,40.7-7.47,111,111,0,0,1,22.55,1.34v.29Q913.69,610,904,622.7q-10.71,14.1-21.93,27.51c.48-.93,1-1.83,1.47-2.76.55-1.08-.94-2.43-1.77-1.37-19.71,25.21-39.47,49.67-64.66,69.69-19.65,15.63-40.72,28.33-61.83,41.28-8.92-29.36,14.39-75,51.44-116.6A144,144,0,0,0,827.75,620Z"/><path class="c" d="M882.09,650.21Q893.28,636.77,904,622.7q9.65-12.66,18.89-25.84c1.24,5-5.64,103.66-56.24,147.4-3,2.7-6,5.17-9.06,7.55-1.41-.23-2.87-.44-4.37-.64L851.7,751c-1-.12-2.05-.24-3.12-.34-19.14-1.8-44.37-.14-68.76,12.77a111.3,111.3,0,0,0-12.1,7.43c-.63.46-1.23.92-1.87,1.38a38.46,38.46,0,0,1-3.48-3.12C812.19,743,856.86,699,882.09,650.21Z"/><path class="b" d="M779.82,763.43c24.38-12.9,49.62-14.57,68.76-12.77,1.07.1,2.09.22,3.12.34l1.54.17c1.5.2,3,.41,4.37.64a110.46,110.46,0,0,1,21.9,5.59,1.06,1.06,0,0,1-.06.28q-5.6,5.45-11.24,10.74-26.62,24.95-54.72,46.89a1,1,0,0,0-1.6-.07c-2.26,2.32-4.63,4.54-7,6.72q-20.45,15.57-41.51,29.59c-9.87,5.61-20,10.74-30.24,15.54-16.43,7.71-33.78,12.48-50.91,17.7-2-33,34.77-77.2,83.64-112.55.64-.46,1.24-.92,1.87-1.38A111.3,111.3,0,0,1,779.82,763.43Z"/><path class="c" d="M763.36,851.55q21.06-14,41.51-29.59C792.32,833.46,778.2,843.1,763.36,851.55Z"/><path class="c" d="M813.49,816.83a1.11,1.11,0,0,0,0-1.52q28-22,54.72-46.89,5.65-5.29,11.24-10.74c.28,5.18-25.85,101.88-84.77,136.14-49.63,29.67-93.2,27.54-107.3,6.52,18.14-6.34,36-15.88,51.14-24A275.67,275.67,0,0,0,813.49,816.83Z"/><path class="b" d="M654.62,24.6c0-.14,0-.19,0-.21-.86-.72,76.07,8.21,112.39,71.33,20.81,36.12,28.82,73.63,26,99.82a1.43,1.43,0,0,0,.06-.35c11.33-60.89,70.59-87.57,71.23-87.14,0,0,.06.08.14.24q-.94,30.67-4.22,60.32a1.37,1.37,0,0,0-1.59,1.14c-8.32,57.83-24.91,112-45.46,165.84-.68-.46-1.37-.93-2-1.45-24-19.13-28.86-70.33-20.31-126.27-3.29,12-9.39,20.36-17.82,23.87a25.15,25.15,0,0,1-9.94,1.79,727.71,727.71,0,0,0-45.27-108A731.7,731.7,0,0,0,654.62,24.6Z"/><path class="c" d="M677.85,151.22C649.8,100.83,655.06,30,654.62,24.6a732.29,732.29,0,0,1,63.2,100.95,727.71,727.71,0,0,1,45.27,108c-7.1-.11-14.76-3-22.61-7.9a107.18,107.18,0,0,1-16.3-12.75C708.3,198,692.28,176.66,677.85,151.22Z"/><circle class="d" cx="418.18" cy="882.03" r="140.95"/><polygon class="e" points="382.13 867.13 418.25 831.01 454.38 867.13 475.37 846.14 418.25 789.01 361.12 846.14 382.13 867.13"/><rect class="e" x="331.34" y="867.2" width="29.66" height="29.66" transform="translate(-522.3 503.12) rotate(-45)"/><polygon class="e" points="382.13 896.79 418.25 932.93 454.38 896.79 475.37 917.8 475.37 917.8 418.25 974.92 361.12 917.8 360.99 917.8 382.13 896.79"/><rect class="e" x="475.25" y="867.2" width="29.66" height="29.66" transform="translate(-480.15 604.88) rotate(-45)"/><polygon class="e" points="439.54 881.97 439.54 881.97 418.25 860.67 402.39 876.39 402.39 876.39 400.63 878.14 396.96 881.97 396.96 881.97 396.81 881.97 396.96 881.97 418.25 903.25 439.54 881.97 439.54 881.97"/><circle class="f" cx="510.03" cy="576.53" r="204.18"/><path class="g" d="M512.42,405.57A175.84,175.84,0,1,0,688.25,581.4,175.83,175.83,0,0,0,512.42,405.57ZM461.64,672.35H611.89c.34,0,.69,0,1.1.08V711c-22.77-.07-45.49,0-68.21,0H476.55c-22.72,0-45.44,0-68.3,0,.06-2.19.05-4.34.18-6.48a100.84,100.84,0,0,1,1.2-10.68,102.21,102.21,0,0,1,26.42-53.4,103.74,103.74,0,0,1,14-12.4,101.86,101.86,0,0,1,32.74-16c24.61-7,48.1-.48,69.3-18.36a63,63,0,0,0,17-22.6,64.34,64.34,0,0,0,4.77-16c.21-1.32.23-2.67.43-4a42.92,42.92,0,0,0,.28-7.6c0-1.93-.3-3.85-.43-5.78a45.11,45.11,0,0,0-1.27-7.58,63.67,63.67,0,0,0-39.29-44.68,63.43,63.43,0,0,0-25.74-4,59,59,0,0,0-8.86,1.14,63.15,63.15,0,0,0-35.12,20.12,64.62,64.62,0,0,0-12.14,20.43,50.26,50.26,0,0,0-2.32,8c-.42,2.18-.75,4.39-1.1,6.59a38.34,38.34,0,0,0-.37,6.69v.52H408.43a4.63,4.63,0,0,1-.13-.91c.05-2.11.08-4.24.21-6.35a98.77,98.77,0,0,1,3.9-21.9,102.43,102.43,0,0,1,27-44.72,100.46,100.46,0,0,1,10.46-8.85A102.32,102.32,0,0,1,474.05,449a99.75,99.75,0,0,1,17.37-4.94,114.12,114.12,0,0,1,11.35-1.52c4.12-.34,8.24-.3,12.36-.25,1.6,0,3.22.17,4.81.36,2.85.33,5.69.69,8.52,1.14a93.3,93.3,0,0,1,12.1,2.87A102.93,102.93,0,0,1,558.43,454a102.55,102.55,0,0,1,41.74,40.72,105.32,105.32,0,0,1,6.8,14.8,97.94,97.94,0,0,1,4.6,17,85.83,85.83,0,0,1,1.5,17c-.07,3.14,0,6.28-.25,9.4s-.64,6.05-1.11,9.06A94.33,94.33,0,0,1,608,577a102.36,102.36,0,0,1-26.76,42.06,94,94,0,0,1-10.91,9c-3,2.07-6.08,4-9.21,5.86A99.8,99.8,0,0,1,535,644.25c-9.21,2.06-19.32,2.56-29,3.27a59.71,59.71,0,0,0-12.56,2.35,63.49,63.49,0,0,0-31.79,21.47c-.2.25-.36.52-.61.88C461.26,672.28,461.45,672.33,461.64,672.35Zm25.6-128.79a23.13,23.13,0,0,1,7.56-15.92,23.57,23.57,0,0,1,18.08-6.45c12.1.7,22.69,11.1,22.42,22.51,0,8.66-2.65,14.58-7.79,19.33a23.52,23.52,0,0,1-18,6.25A24,24,0,0,1,487.24,543.56Z"/><path class="h" d="M511.86,364.63c-117.14,0-212.1,95-212.1,212.1s95,212.11,212.1,212.11S724,693.88,724,576.73,629,364.63,511.86,364.63ZM461.05,670.75c.3,0,.6,0,.9,0H611.4c.35,0,.7,0,1.1.08v38.61c-22.78-.07-45.52,0-68.26,0H476c-22.74,0-45.48,0-68.35,0,.06-2.19.05-4.34.18-6.48a101,101,0,0,1,1.2-10.69,102.38,102.38,0,0,1,26.44-53.44,103.9,103.9,0,0,1,14-12.41,101.93,101.93,0,0,1,32.77-16c24.62-7,48.13-.47,69.34-18.37A63.91,63.91,0,0,0,573.3,553.4c.22-1.32.24-2.67.44-4a43.93,43.93,0,0,0,.28-7.6c-.06-1.94-.3-3.86-.43-5.79a44.25,44.25,0,0,0-1.28-7.59A63.72,63.72,0,0,0,533,483.72a65,65,0,0,0-12.8-3.35,63.91,63.91,0,0,0-13-.64,59.14,59.14,0,0,0-8.87,1.14,62.65,62.65,0,0,0-21.53,8.55A63.1,63.1,0,0,0,463.23,501a65,65,0,0,0-12.15,20.45,50.57,50.57,0,0,0-2.32,8c-.42,2.19-.75,4.4-1.11,6.6a37.38,37.38,0,0,0-.36,6.69v.53H407.8a4.63,4.63,0,0,1-.13-.91c.05-2.12.08-4.25.21-6.36a98.84,98.84,0,0,1,3.9-21.92,102.65,102.65,0,0,1,27.07-44.75,100.38,100.38,0,0,1,10.47-8.85,102,102,0,0,1,24.15-13.21,99.86,99.86,0,0,1,17.38-4.94,114.32,114.32,0,0,1,11.36-1.52c4.12-.34,8.24-.3,12.36-.25,1.61,0,3.22.17,4.82.36,2.85.33,5.69.69,8.52,1.14A91.49,91.49,0,0,1,540,444.92a101.94,101.94,0,0,1,17.88,7.33,102.38,102.38,0,0,1,25.81,19.31,102.42,102.42,0,0,1,16,21.44,106,106,0,0,1,6.8,14.81,99.22,99.22,0,0,1,4.61,17,85.92,85.92,0,0,1,1.49,17c-.07,3.14,0,6.29-.24,9.41s-.65,6.06-1.12,9.06a93.5,93.5,0,0,1-3.72,15,102.55,102.55,0,0,1-26.77,42.09,93.88,93.88,0,0,1-10.92,9c-3,2.08-6.09,4-9.22,5.87a100.42,100.42,0,0,1-26.17,10.34c-9.22,2.06-19.34,2.55-29.06,3.27a59.8,59.8,0,0,0-12.57,2.35A63.58,63.58,0,0,0,461,669.75c-.2.25-.37.52-.62.87A6,6,0,0,0,461.05,670.75Zm25.61-128.88a23.16,23.16,0,0,1,7.57-15.93,23.6,23.6,0,0,1,18.1-6.45c12.1.69,22.7,11.1,22.43,22.52,0,8.67-2.65,14.59-7.8,19.34a23.5,23.5,0,0,1-18,6.26A24,24,0,0,1,486.66,541.87Z"/></svg>