<?xml version="1.0" encoding="utf-8"?>
<!-- Generator: Adobe Illustrator 24.3.0, SVG Export Plug-In . SVG Version: 6.00 Build 0)  -->
<svg version="1.1" id="Capa_1" xmlns:v="https://vecta.io/nano"
	 xmlns="http://www.w3.org/2000/svg" xmlns:xlink="http://www.w3.org/1999/xlink" x="0px" y="0px" viewBox="0 0 123.9 131.8"
	 style="enable-background:new 0 0 123.9 131.8;" xml:space="preserve">
<style type="text/css">
	.st0{clip-path:url(#SVGID_2_);}
	.st1{opacity:0.1;}
	.st2{fill-rule:evenodd;clip-rule:evenodd;fill:#606063;}
	.st3{fill:#BEBEBE;}
	.st4{fill:#FAF9FA;}
	.st5{fill-rule:evenodd;clip-rule:evenodd;fill:#633001;}
	.st6{fill:#FEDC90;}
	.st7{fill:#D1884F;}
	.st8{fill-rule:evenodd;clip-rule:evenodd;fill:url(#SVGID_3_);}
	.st9{fill:#9E7200;}
	.st10{fill:#F0B90B;}
	.st11{fill:#E23040;}
	.st12{fill:#FF7881;}
	.st13{fill:#FC5161;}
	.st14{fill:#FFBFBF;}
	.st15{fill:#FF9B2E;}
	.st16{fill:#F9C55D;}
	.st17{fill:#FF7176;}
	.st18{fill:#0A101B;}
	.st19{fill:#2A6589;}
	.st20{fill:#FFDBCC;}
	.st21{fill:#7A0000;}
	.st22{fill:#3F0000;}
	.st23{fill:#FF8F8F;}
	.st24{fill:#DB3A4D;}
	.st25{opacity:0.49;}
	.st26{opacity:0.54;fill:#FFFFFF;}
	.st27{fill:#EFB9B9;}
	.st28{fill-rule:evenodd;clip-rule:evenodd;fill:#FC5161;}
	.st29{fill:#DD3C50;}
	.st30{fill:#298C8E;}
	.st31{fill:#2DA9B1;}
	.st32{fill:#27999B;}
	.st33{fill:#6CD5D8;}
	.st34{opacity:0.2;fill:#2DA9B1;}
	.st35{fill:url(#SVGID_4_);}
	.st36{fill:url(#SVGID_5_);}
	.st37{fill:#FFCE19;}
	.st38{opacity:0.1;fill:#DD3C50;}
	.st39{fill:#037099;}
	.st40{fill:#0194BF;}
	.st41{fill:#0992B2;}
	.st42{opacity:0.3;fill:#2F375C;}
	.st43{fill:#D19418;}
	.st44{fill:#EFBC56;}
	.st45{fill:#F7C321;}
</style>
<g>
	<path class="st1" d="M17.4,67.7c0,1.4,0,2.6,0.1,3.5c0,0.3,0.1,0.6,0.1,0.9c0.1,0.5,0.4,1.7,0.7,3.1c0.5,2.1,1.1,4.7,1.4,6.9
		c0.1,0.5,0.1,0.9,0.2,1.3c0,0.1,0,0.2,0,0.3c0,0.5,0.2,1.5,0.3,2.7c0.1,0.6,0.2,1.2,0.3,1.9c0.1,0.8,0.2,1.6,0.4,2.4
		c0.1,0.7,0.2,1.4,0.3,2.2c0.1,0.5,0.2,1,0.2,1.5c1,6.5,2.3,13.7,2.8,16.2c0.7,3.2,1.3,7,1.6,8.8c0.1,0.6,0.1,1,0.1,1
		s10.2,2.7,18.6,0.4c7.5-2.1,15.9-6.5,19.4-8.3c0.4-0.2,0.7-0.4,1-0.5c2.1-1.3,5.4-2.6,6.2-2.9c-0.3-0.8-0.7-1.6-1-2.4
		c-3.1-7.3-6.5-14.7-9.6-22.4c0.2,0.4,0.3,0.8,0.5,1.2c0.1,0.3,0.3,0.6,0.4,1c0,0,0,0,0,0c0.1,0.3,0.3,0.6,0.4,1
		c0.2,0.4,0.3,0.7,0.5,1.1c0.2,0.4,0.3,0.7,0.5,1.1c0.3,0.7,0.6,1.4,0.9,2c0.1,0.3,0.3,0.7,0.4,1c2.4,5.6,4.9,11.1,7.1,16.5
		c0.1,0,0.2-0.1,0.2-0.1l1,1.8l0.8,1.5l0.9,1.6c0,0,7.8,4.2,16.5,2.7c8.6-1.4,12.9-4.1,12.9-4.1l7.8-8.4c0,0-0.2-1.1-0.5-2.9
		c-0.7-4.4-2.2-13.4-3.9-22.5c-0.1-0.3-0.1-0.6-0.2-0.9c-0.1-0.7-0.3-1.4-0.4-2.1c0-0.2-0.1-0.3-0.1-0.5c-0.1-0.6-0.2-1.3-0.4-1.9
		c-0.1-0.6-0.2-1.3-0.4-1.9c-0.2-0.9-0.3-1.7-0.5-2.5c-0.1-0.7-0.3-1.4-0.4-2.1c-0.4-1.9-0.8-3.8-1.1-5.4c-0.4-2-0.8-3.7-1.2-5.1
		c-0.1-0.2-0.1-0.5-0.2-0.7c-0.3-1.2-0.6-2.3-0.9-3.5c-2.6-9.8-4.6-16.9-6.9-21.3c-2.6-4.8-3-5.5-3-5.5s-0.1-0.2-0.2-0.5
		c-0.7-1.9-3.1-9-4.2-10.9c-0.1-0.2-0.2-0.4-0.3-0.4c-0.9-0.7-1.6-0.3-1.6-0.3s-9,0.8-14.9,3c-5.9,2.2-20.1,4.6-28.9,6.5
		c-8.8,2-17.3,2.2-19.1,3.1c-1.8,0.9-2.4,1-2.6,1.4c-0.1,0.1-0.4,0.6-0.6,1.4c-0.5,1.2-1,3.2-1.2,5.8c-0.1,0.9-0.1,2.8-0.1,5
		c-0.1,7.8,0,21.1,0,24.1C17.4,65.3,17.4,66.6,17.4,67.7z M60.6,87.7c0-0.7-0.2-1.5-0.2-2.2c-0.1,2.1-0.2,4.1-0.4,6.2
		c0-0.3,0.1-0.6,0.1-0.9c0-0.3,0.2-0.7,0.3-1c0-0.4,0.4-0.9,0.4-1.3v0C60.8,88.2,60.5,87.9,60.6,87.7z"/>
	<g>
		<path class="st39" d="M14.7,23.1c0.3-0.4,0.8-0.5,2.6-1.4c1.8-0.9,10.3-1.2,19.1-3.1c8.8-2,23-4.3,28.9-6.5c5.9-2.2,14.9-3,14.9-3
			s0.7-0.4,1.6,0.3c0.1,0.1,0.2,0.2,0.3,0.4C70.8,16.7,60,21.1,47.7,23.4c0.3,0.8,0.3,1.7,0.3,3.1c-0.6-1.2-1.2-2.1-2.1-2.8
			c-10.5,1.7-21.2,1.9-31.9,0.8C14.3,23.7,14.6,23.2,14.7,23.1z"/>
		<path class="st39" d="M66.3,104.6c-0.8,0.3-4.2,1.7-6.2,2.9c-0.2,0.1-0.6,0.3-1,0.5c0-0.6,0-1.3-0.1-1.9c2.2-1.2,4.2-2.6,6.3-4
			C65.6,103,66,103.8,66.3,104.6z"/>
		<path class="st39" d="M58.5,94.4c-0.3,0-0.7,0.2-1,0.5c0-0.1,0-0.3-0.1-0.5c0,0.1,0,0.3,0.1,0.5c-0.7,0.5-1.4,1.3-2.2,0.6
			c-0.8-5.6,0.2-10.5,0.3-15.8c3.1,7.8,6.6,15.1,9.6,22.4c-2,1.4-4.1,2.8-6.3,4c-0.2-3.8-1-7.7-1.5-11.3
			C57.8,94.6,58.2,94.4,58.5,94.4z"/>
		<path class="st31" d="M12.8,66.8c-0.1-0.9-0.1-2.1-0.1-3.5c29.5,2.5,58.6,3,83.7-15.5c0.3,1.1,0.6,2.3,0.9,3.5
			c0.1,0.2,0.1,0.4,0.2,0.7C72.9,69.5,42.2,68.6,12.8,66.8z"/>
		<path class="st13" d="M13.5,70.7c-0.3-1.4-0.6-2.5-0.7-3.1c0-0.3-0.1-0.6-0.1-0.9c29.4,1.9,60.2,2.8,84.7-14.9
			c0.4,1.4,0.8,3.2,1.2,5.1C73.9,75.2,43.2,74.1,13.5,70.7z"/>
		<path class="st40" d="M99.8,62.4c0.1,0.7,0.3,1.4,0.4,2.1C74.5,80.8,44.6,81.8,15,78.9c0-0.4-0.1-0.8-0.2-1.3
			C44.5,79.1,74.8,78.5,99.8,62.4z"/>
		<path class="st40" d="M55.4,84C55.4,84,55.4,84,55.4,84L55.4,84C55.4,84,55.4,84,55.4,84z"/>
		<path class="st31" d="M55.5,83.2c0,0.3,0,0.5-0.1,0.8c0,0,0,0-0.1,0h0.1c0,0.4-0.1,0.9-0.1,1.3c-13.4,3.1-25.8,1.7-39.3,1
			c-0.1-0.9-0.3-1.7-0.4-2.4C29.2,84.1,42.2,87.3,55.5,83.2z"/>
		<path class="st40" d="M16.4,88.5c-0.1-0.8-0.2-1.5-0.3-2.2c13.4,0.6,25.8,2.1,39.3-1c0,0.3-0.1,0.7-0.1,1
			C41.9,88.8,29.7,89.1,16.4,88.5z"/>
		<path class="st31" d="M16.6,90c-0.1-0.5-0.2-1-0.2-1.5c13.3,0.6,25.6,0.3,38.9-2.2c0,0.4,0,0.8-0.1,1.1
			C42.3,90.7,29.7,91.2,16.6,90z"/>
		<path class="st41" d="M59,106.2c0,0.6,0.1,1.3,0.1,1.9c-3.5,1.9-11.9,6.2-19.4,8.3c-8.4,2.4-18.6-0.4-18.6-0.4s-0.1-0.4-0.1-1
			C34.4,116.3,47.2,112.9,59,106.2z"/>
		<path class="st31" d="M20.9,115c-0.3-1.8-0.9-5.6-1.6-8.8c-0.5-2.5-1.8-9.7-2.8-16.2c13.1,1.2,25.6,0.7,38.6-2.6
			c-0.2,2.6-0.2,5.3,0.2,8.1c0.7,0.7,1.4,0,2.2-0.6c0.5,3.6,1.3,7.4,1.5,11.3C47.2,112.9,34.4,116.3,20.9,115z"/>
		<path class="st40" d="M55.6,81c0,0.7-0.1,1.5-0.1,2.2c-13.3,4.1-26.3,0.9-39.8,0.6c-0.1-0.7-0.2-1.3-0.3-1.9
			C29.1,83.5,42.1,84.2,55.6,81z"/>
		<path class="st31" d="M100.2,64.5c0.2,0.8,0.3,1.7,0.5,2.5c-14.1,6.9-29.1,11.8-44.2,14.8c-0.1-0.3-0.3-0.6-0.4-1
			c0.1,0,0.2,0,0.3-0.1c-0.1,0-0.2,0-0.3,0.1c-0.2-0.4-0.3-0.8-0.5-1.2c0,0.4,0,0.9,0,1.3c-13.5,3.2-26.5,2.4-40.2,0.9
			c-0.2-1.2-0.3-2.1-0.3-2.7c0-0.1,0-0.2,0-0.3C44.6,81.8,74.5,80.8,100.2,64.5z"/>
		<path class="st40" d="M56.6,81.9h0.9H56.6C56.6,81.9,56.6,81.9,56.6,81.9c15-3.1,30-8,44.2-14.9c0.1,0.6,0.2,1.3,0.4,1.9
			C87,75.8,72,80.8,57,82.9C56.8,82.5,56.7,82.2,56.6,81.9z"/>
		<path class="st31" d="M57,82.9c15-2.1,30-7,44.1-13.9c0.1,0.6,0.2,1.3,0.4,1.9c-13.8,6.8-28.4,12.6-44,13.1
			C57.3,83.6,57.1,83.2,57,82.9z"/>
		<path class="st40" d="M57.9,85c-0.2-0.4-0.3-0.7-0.5-1.1c15.6-0.5,30.3-6.3,44-13.1c0,0.2,0.1,0.3,0.1,0.5
			C87.7,78.4,73.7,85.9,57.9,85z"/>
		<path class="st41" d="M95.9,106.4c-0.6,0.5-1.2,1-1.8,1.6C94.6,107.5,95.2,106.9,95.9,106.4c0.8-0.2,1.6-0.3,2.4-0.5
			C97.4,106.1,96.7,106.3,95.9,106.4c3.6-2.9,8-5.1,10.1-9.5c0.3,1.8,0.5,2.9,0.5,2.9l-7.8,8.4c0,0-4.3,2.6-12.9,4.1
			c-8.6,1.4-16.5-2.7-16.5-2.7l-0.9-1.6C77.3,110.4,86.9,108.3,95.9,106.4z"/>
		<path class="st31" d="M66.5,104.5c0,0-0.1,0-0.2,0.1c-2.2-5.4-4.6-10.9-7.1-16.5c15.2-0.5,30.3-5.4,42.9-13.7
			c1.7,9.1,3.2,18.1,3.9,22.5c-2.1,4.4-6.5,6.6-10.1,9.5c-9,1.9-18.6,4-27.5,1.4l-0.8-1.5L66.5,104.5z"/>
		<path class="st40" d="M58.8,87.1c15.3-0.5,30.5-5.2,43.1-13.6c0.1,0.3,0.1,0.6,0.2,0.9c-12.6,8.3-27.6,13.1-42.9,13.7
			C59.1,87.8,58.9,87.4,58.8,87.1z"/>
		<path class="st31" d="M57.9,85c15.8,0.8,29.8-6.7,43.6-13.7c0.1,0.7,0.3,1.4,0.4,2.1c-12.7,8.3-27.8,13.1-43.1,13.6
			C58.5,86.4,58.2,85.7,57.9,85z"/>
		<path class="st31" d="M14.9,77.6c-0.3-2.2-0.9-4.8-1.4-6.9c29.7,3.3,60.4,4.4,85.2-13.8c0.4,1.7,0.7,3.5,1.1,5.4
			C74.8,78.5,44.5,79.1,14.9,77.6z"/>
		<path class="st13" d="M12.7,63.3c0-1.1,0-2.4,0-3.9c0-3-0.1-16.3,0-24.1c25.8,1,51.9,1.2,73.6-14.8c0.1,0.3,0.2,0.5,0.2,0.5
			s0.4,0.7,3,5.5c2.3,4.3,4.3,11.4,6.9,21.3C71.3,66.2,42.2,65.7,12.7,63.3z"/>
		<path class="st31" d="M12.7,35.3c0-2.3,0.1-4.1,0.1-5c0.2-2.6,0.7-4.6,1.2-5.8c10.7,1.2,21.4,1,31.9-0.8c0.8,0.7,1.4,1.6,2.1,2.8
			c0-1.4,0-2.3-0.3-3.1C60,21.1,70.8,16.7,82.1,9.6c1.1,1.9,3.6,9,4.2,10.9C64.6,36.5,38.5,36.3,12.7,35.3z"/>
		<path class="st13" d="M103.1,97.9c-1.4,1-2.9,2.3-4,3.7c-0.2-1.7-1.1-3.3-1.5-4.9c1.6-0.9,2.6-2.6,3.9-3.7c0.4,1.7,1,3.5,1.5,5.1"
			/>
		<path class="st42" d="M49.1,34c0.5,2.2-0.1,3.5-1,5.4c-1,1.9,0.4,3.4,0.9,5.4c1.1,5.1,2.8,10.1,3.6,15.1c0.1-0.3,0.3-0.8,0.4-1.2"
			/>
		<path class="st42" d="M42.1,36.6c-0.4,1.3,0.1,5.1-0.1,7.2c-0.3,2.6,0.3,4.1,1,6.6c0.7,2.6,1,5.1,1.8,7.7c0.9,2.7,1.6,1.9,4,2.6
			c-3.2-2.2-5.4-7.3-5.7-11c-0.2-2.4-0.4-4.5-0.5-6.8c-0.1-2,0.1-5-0.7-6.8"/>
		<path class="st39" d="M60.8,18.9c-0.1,2.4,1.4,5.3,2.1,7.6c0.5,1.7,0.9,3.3,1.7,4.9c-1.2-2.1-2.1-4.1-2.8-6.4
			c-0.3-0.9-1.6-4.9-1.3-5.2"/>
		<path class="st42" d="M32.2,43.4c0.2,0.4,0.7,0.3,0.9,0c1.3-2.2,2.8-4.3,4.5-6.2c0.8-0.9,1.6-1.7,2.5-2.5
			c-1.6,2.3-2.5,5.2-3.1,7.7c-1,3.9-2.1,8.8-1.2,12.8c0.1,0.3,0.5,0.3,0.5,0c0.9-3.9,0.6-7.9,1.6-11.8c0.8-3.3,2.1-6.1,3.8-8.9
			c0,0.2,0,0.3,0,0.5c0,0.3,0.2,0.6,0.5,0.6c1.4,0.2,2.6,0,3.9-0.7c0.2-0.1,0.4-0.5,0.3-0.8c0,0,0-0.1,0-0.1
			c1.9,2.4,3.1,4.6,4.9,7.1c2.2,3.2,3.3,6.4,4.2,10.2c0.1,0.5,0.8,0.4,0.8-0.1c0.1-3.6-1.9-7.5-4-10.4c1.4,1.4,2.9,2.5,4.8,3.3
			c0.3,0.1,0.6-0.2,0.6-0.4c1.4-7.6-6.8-12.6-13.2-13.2c0.3-0.2,0.5-0.4,0.8-0.6c0.3-0.2,0.2-0.7-0.2-0.8c-0.4,0-0.7,0-1,0.1
			c0.1-0.4-0.3-0.9-0.7-0.7C42,28.9,40.7,30,41,31.4c-2.3,0.6-5.1,2.6-6.4,3.7C32.2,37.3,30.8,40.2,32.2,43.4z M46.2,32
			c5.3,1.1,10.9,5,10.4,10.7C51.9,40.5,50.5,34.8,46.2,32z M32.8,41.9c-0.7-3,1.8-5.7,4.2-7.2c1.2-0.8,2.5-1.4,3.9-1.8
			c0,0,0.1,0,0.1,0c-1.5,0.7-2.9,2.3-3.7,3.2C35.6,37.8,34.1,39.8,32.8,41.9z"/>
		<path class="st39" d="M30.5,24.2c-0.7,1.7-0.4,4.5-0.3,6.4c0.1,1.8,0.1,4,0.6,5.6c-0.8-2.1-0.9-4.7-1.3-6.9
			c-0.2-1.4-0.7-3.7-0.2-5"/>
		<path class="st43" d="M33.2,41.9c0.2,0.4,0.7,0.3,0.9,0c1.3-2.2,2.8-4.3,4.5-6.2c0.8-0.9,1.6-1.7,2.5-2.5
			c-1.6,2.3-2.5,5.2-3.1,7.7c-1,3.9-2.1,8.8-1.2,12.8c0.1,0.3,0.5,0.3,0.5,0c0.9-3.9,0.6-7.9,1.6-11.8c0.8-3.3,2.1-6.1,3.8-8.9
			c0,0.2,0,0.3,0,0.5c0,0.3,0.2,0.6,0.5,0.6c1.4,0.2,2.6,0,3.9-0.7c0.2-0.1,0.4-0.5,0.3-0.8c0,0,0-0.1,0-0.1
			c1.9,2.4,3.1,4.6,4.9,7.1c2.2,3.2,3.3,6.4,4.2,10.2c0.1,0.5,0.8,0.4,0.8-0.1c0.1-3.6-1.9-7.5-4-10.4c1.4,1.4,2.9,2.5,4.8,3.3
			c0.3,0.1,0.6-0.2,0.6-0.4C60,34.6,51.8,29.6,45.4,29c0.3-0.2,0.5-0.4,0.8-0.6c0.3-0.2,0.2-0.7-0.2-0.8c-0.4,0-0.7,0-1,0.1
			c0.1-0.4-0.3-0.9-0.7-0.7c-1.3,0.4-2.6,1.5-2.3,2.9c-2.3,0.6-5.1,2.6-6.4,3.7C33.3,35.8,31.8,38.7,33.2,41.9z M47.2,30.5
			c5.3,1.1,10.9,5,10.4,10.7C52.9,39,51.5,33.3,47.2,30.5z M33.8,40.4c-0.7-3,1.8-5.7,4.2-7.2c1.2-0.8,2.5-1.4,3.9-1.8
			c0,0,0.1,0,0.1,0c-1.5,0.7-2.9,2.3-3.7,3.2C36.6,36.3,35.1,38.3,33.8,40.4z"/>
		<path class="st44" d="M45.1,29.4c3.9,2.5,5.5,5.7,8.5,9.3c0.1,0.1,0,0.3-0.2,0.2c-2.9-3.1-4.8-7-8.7-8.8
			C44.3,29.9,44.6,29.1,45.1,29.4z"/>
		<path class="st44" d="M42.7,30.3c0-0.1,0-0.2,0.1-0.2c0.2-0.6,0.9-1.4,1.5-1.5c0.3-0.1,0.5,0.2,0.4,0.5c-0.3,0.6-1.3,1.1-0.8,2
			c0.3,0.5,1.2,0.3,1.6,0.2c0.5-0.1,0.8,0.6,0.4,0.9c-0.9,0.7-2.3,0.5-2.9-0.4C42.6,31.3,42.6,30.8,42.7,30.3z"/>
		<path class="st44" d="M43.9,28c0.4-0.7,1.7-0.4,1.8,0.3c0,0.1-0.1,0.3-0.2,0.2c-0.2-0.2-0.5-0.3-0.8-0.3c-0.3,0-0.5,0.1-0.8,0
			C43.8,28.3,43.8,28.1,43.9,28z"/>
		<path class="st44" d="M56.4,51.2c0.1-0.4,0.1-0.8,0.1-1.1c0-0.3,0.4-0.2,0.4,0.1c0,0.6,0,1.5-0.4,1.9c-0.1,0.1-0.2,0-0.2-0.1
			C56.3,51.7,56.4,51.5,56.4,51.2z"/>
		<path class="st44" d="M36.9,53.2c0-0.1,0.3-0.1,0.2,0.1c-0.1,0.7,0.1,1.5,0.1,2.2c0,0.1-0.1,0.2-0.2,0.1
			C36.6,54.9,36.7,53.9,36.9,53.2z"/>
		<path class="st44" d="M42.2,30.6c0.1-0.1,0.2-0.1,0.3,0c0.2,0.2,0.1,0.5,0.1,0.8c0,0.3,0.1,0.6,0.3,0.9c0.3,0.6,1.1,0.9,1.7,1
			c0.1,0,0.1,0.2,0,0.2c-0.8,0-1.4-0.1-2-0.8C42.1,32.4,41.7,31.2,42.2,30.6z"/>
		<path class="st44" d="M35.3,34.5c0.9-1.1,1.9-2,3.1-2.8c1.1-0.7,2.6-1.5,3.9-1.4c0.1,0,0.2,0.2,0.1,0.2c-1.1,0.7-2.5,1.1-3.6,1.8
			c-1.2,0.7-2.2,1.5-3.3,2.4C35.3,34.8,35.2,34.6,35.3,34.5z"/>
		<path class="st44" d="M45.4,28.9c2.7,0.4,4.2,1.5,6.6,2.7c0.1,0.1,0,0.3-0.1,0.2c-2.4-1.2-4-1.8-6.5-2.8
			C45.3,29,45.3,28.8,45.4,28.9z"/>
	</g>
</g>
</svg>
